<?xml version="1.0" standalone="no"?>
<!DOCTYPE svg PUBLIC "-//W3C//DTD SVG 20010904//EN"
 "http://www.w3.org/TR/2001/REC-SVG-20010904/DTD/svg10.dtd">
<svg version="1.0" xmlns="http://www.w3.org/2000/svg"
 width="800.000000pt" height="800.000000pt" viewBox="0 0 800.000000 800.000000"
 preserveAspectRatio="xMidYMid meet">
<metadata>
Created by potrace 1.14, written by Peter Selinger 2001-2017
</metadata>
<g transform="translate(0.000000,800.000000) scale(0.100000,-0.100000)"
fill="#000000" stroke="none">
<path d="M0 4000 l0 -4000 4000 0 4000 0 0 4000 0 4000 -4000 0 -4000 0 0
-4000z m4078 3485 c1 -36 4 -70 7 -75 3 -5 1 -11 -5 -15 -5 -3 -10 1 -10 9 0
9 -5 16 -11 16 -17 0 -1 -621 17 -639 2 -2 4 43 4 102 0 58 4 108 9 112 9 5
12 -7 24 -85 4 -21 4 -20 6 6 2 44 30 99 44 85 17 -17 27 -13 27 9 0 10 8 24
19 29 10 6 24 23 30 39 11 26 9 31 -24 66 -19 21 -35 43 -35 49 0 7 13 -2 28
-19 32 -38 61 -54 96 -54 31 0 31 6 6 -111 -33 -149 -34 -155 -22 -144 5 6 17
39 26 75 9 35 26 75 38 87 11 12 18 29 15 37 -8 21 -4 20 45 -5 43 -22 68 -27
137 -28 33 -1 41 -4 34 -13 -6 -7 -16 -38 -22 -68 -7 -30 -16 -66 -21 -80 -5
-14 -11 -45 -15 -70 l-6 -45 19 50 c10 28 35 74 55 104 39 56 43 66 27 76 -5
3 -10 11 -10 17 0 6 10 3 23 -8 12 -11 34 -26 50 -34 15 -7 27 -19 27 -25 0
-12 53 -55 69 -55 5 0 12 7 15 15 3 10 1 15 -7 14 -13 -2 -72 20 -66 25 2 2
39 -2 82 -8 77 -11 77 -11 58 -31 -22 -22 -83 -194 -74 -208 3 -5 13 3 22 17
17 25 17 25 31 5 8 -11 33 -34 55 -51 22 -17 37 -28 33 -23 -4 4 -3 14 3 21
12 15 -5 36 -58 73 -18 12 -33 27 -33 33 0 17 55 75 68 70 6 -2 28 -26 47 -53
l36 -49 30 22 29 22 -28 18 c-15 10 -22 18 -16 18 5 0 19 -7 30 -15 10 -8 35
-15 54 -15 25 0 31 -3 20 -9 -8 -6 -18 -7 -24 -4 -5 3 -6 1 -2 -6 4 -6 -6 -47
-23 -90 -50 -130 -60 -203 -18 -131 13 21 23 27 35 23 14 -6 15 -4 5 8 -8 10
-9 20 -2 29 6 10 11 12 17 4 52 -76 127 -137 108 -89 -6 17 2 45 14 45 5 0 10
-8 12 -17 2 -13 8 -9 25 17 14 23 18 37 11 41 -6 4 -8 12 -4 18 4 6 2 9 -7 6
-14 -6 -107 80 -107 98 1 7 8 3 18 -9 10 -11 42 -38 72 -58 30 -21 54 -42 53
-46 -1 -4 6 -6 16 -3 9 2 23 -3 30 -11 8 -9 9 -16 3 -16 -11 0 -95 -194 -119
-273 -8 -27 -13 -56 -11 -65 3 -9 12 8 21 38 16 54 46 107 47 83 0 -14 31 -6
43 11 5 7 10 6 17 -4 13 -20 13 -63 0 -76 -15 -15 8 -64 29 -64 12 0 12 3 3
12 -17 17 -15 68 2 68 8 0 16 -6 18 -12 3 -8 10 -3 18 12 7 14 21 34 31 46 19
20 19 21 -16 68 -21 26 -41 43 -47 40 -7 -5 -8 -2 -3 6 4 7 3 15 -3 19 -6 4
-5 10 3 18 11 10 15 7 20 -16 6 -28 88 -121 106 -121 5 0 9 -7 9 -15 0 -22
-45 -108 -64 -124 -9 -8 -16 -22 -16 -33 0 -10 -7 -21 -16 -25 -8 -3 -13 -12
-10 -20 3 -7 -2 -32 -10 -54 -9 -22 -14 -43 -10 -46 3 -3 13 11 21 31 14 32
18 36 31 25 13 -10 20 -10 36 0 23 14 38 2 38 -31 0 -24 -54 -60 -68 -46 -8 8
-19 -6 -42 -56 -16 -37 -30 -74 -30 -81 0 -8 -4 -16 -9 -19 -5 -3 -7 -15 -4
-26 3 -12 -1 -28 -9 -38 -27 -31 -28 -39 -8 -64 12 -15 17 -33 13 -46 -6 -25
-18 -28 -30 -9 -11 17 -53 39 -53 28 0 -5 -2 -16 -5 -23 -4 -10 3 -14 22 -13
24 0 28 -4 31 -30 1 -18 -6 -40 -18 -55 l-20 -25 6 33 c4 21 3 32 -5 32 -6 0
-11 -7 -11 -16 0 -10 -6 -14 -14 -11 -11 4 -23 -10 -40 -49 -17 -36 -31 -54
-43 -54 -10 0 -29 -3 -43 -7 -24 -6 -24 -5 8 26 17 18 32 37 32 42 0 18 -24 8
-49 -21 -48 -55 -114 -46 -201 30 l-34 30 52 0 c29 0 52 -4 52 -9 0 -18 31
-41 55 -41 13 0 36 5 52 11 l28 12 -45 20 c-25 11 -39 22 -32 25 8 2 25 -1 37
-8 13 -7 37 -10 54 -7 19 4 31 2 34 -6 9 -28 63 60 95 158 12 33 24 68 27 78
5 12 2 17 -9 17 -9 0 -16 -8 -16 -20 0 -11 -7 -38 -16 -60 -13 -33 -19 -38
-30 -29 -8 6 -25 9 -39 7 -33 -7 -34 18 -1 26 21 5 35 30 36 64 0 18 -25 15
-41 -5 -12 -15 -12 -16 4 -10 11 4 17 2 17 -7 0 -13 -21 -26 -42 -26 -7 0 -7
4 0 13 14 16 -7 60 -40 87 -33 26 -43 13 -11 -14 59 -51 22 -152 -79 -221 -26
-18 -45 -34 -43 -36 2 -2 -25 -3 -60 -3 -48 1 -70 7 -91 23 -15 11 -21 21 -13
21 7 0 4 9 -10 21 -29 27 -81 108 -81 126 0 8 16 21 36 29 39 16 41 36 3 45
-13 3 -34 9 -47 14 l-23 8 20 19 c19 17 23 17 43 4 19 -12 32 -13 73 -3 80 19
97 39 49 58 -30 11 -47 3 -24 -11 21 -13 10 -19 -44 -25 -42 -4 -49 -2 -53 16
-5 17 -9 15 -40 -21 -35 -40 -36 -41 -62 -24 -14 9 -20 11 -13 3 14 -15 16
-29 3 -29 -5 0 -13 9 -16 20 -4 11 -18 26 -33 34 -23 12 -30 11 -73 -15 -51
-32 -84 -30 -73 3 4 14 2 18 -5 14 -6 -4 -11 -2 -11 3 0 6 12 12 28 12 23 2
24 2 5 6 -15 3 -23 12 -24 26 -1 12 -7 0 -13 -28 -7 -27 -9 -51 -4 -53 4 -2 8
-10 8 -17 0 -28 34 -25 78 6 43 31 45 31 78 16 43 -21 43 -41 2 -57 -18 -6
-42 -16 -53 -20 -19 -8 -19 -9 3 -9 13 -1 37 -8 53 -17 17 -8 33 -13 36 -11 2
3 -5 11 -18 18 -21 11 -21 12 -5 24 14 11 23 10 49 -3 32 -17 56 -40 57 -55 0
-5 -5 -5 -10 -2 -15 9 25 -60 65 -112 19 -24 52 -58 74 -74 36 -26 41 -34 42
-72 1 -41 1 -41 12 -14 12 29 41 39 30 10 -3 -10 -10 -23 -14 -29 -5 -6 -5
-14 -1 -19 4 -4 -3 -2 -15 4 -29 15 -45 45 -41 78 2 15 -3 28 -9 30 -9 3 -13
-6 -13 -29 0 -29 12 -54 52 -110 10 -14 9 -21 -7 -37 -10 -12 -15 -24 -11 -29
5 -4 23 11 42 32 19 22 34 33 34 26 0 -7 7 -18 17 -25 15 -11 14 -14 -6 -34
-22 -22 -21 -41 4 -41 7 0 15 10 17 23 2 12 10 22 18 22 15 0 20 11 14 30 -1
6 -4 24 -6 42 -4 27 -2 30 13 23 9 -5 19 -6 23 -3 3 3 6 2 6 -4 0 -6 -7 -17
-17 -24 -14 -13 -13 -15 13 -19 27 -5 29 -8 29 -55 0 -42 -3 -52 -22 -60 -29
-12 -29 -41 -1 -56 21 -11 21 -12 3 -25 -14 -10 -15 -14 -4 -14 12 0 12 -2 -1
-10 -21 -13 -26 -13 -46 7 -13 13 -19 14 -22 5 -5 -16 -34 -15 -58 3 -27 20
-68 20 -60 -1 5 -14 1 -15 -29 -10 -22 4 -35 3 -35 -4 0 -5 -8 -10 -17 -10
-16 0 -16 1 -1 16 13 13 13 21 5 45 -6 16 -17 29 -24 29 -19 0 -16 21 4 36 10
7 15 16 10 20 -9 9 -42 -25 -51 -54 -4 -13 -16 -22 -27 -22 -11 0 -19 -7 -19
-16 0 -15 -9 -16 -64 -10 -69 7 -140 28 -166 49 -8 7 -53 35 -100 61 -109 62
-145 102 -172 191 -27 85 -27 130 -1 173 l20 32 99 4 c74 2 103 -1 115 -11 26
-22 117 -43 142 -33 15 6 17 9 6 9 -8 1 -26 12 -39 26 -13 14 -30 25 -37 25
-22 0 -6 17 24 25 19 4 29 2 35 -9 5 -9 18 -16 28 -16 17 0 16 3 -7 26 -14 14
-32 23 -40 20 -8 -4 -11 -1 -7 5 3 6 -12 1 -34 -10 -69 -35 -241 -58 -283 -38
-15 8 -21 -1 -29 -43 -1 -3 -7 -12 -15 -20 -21 -24 -22 -123 -1 -155 26 -40
13 -40 -22 0 -17 19 -35 35 -39 35 -28 0 -164 -100 -241 -177 -26 -25 -2 -13
50 27 29 22 72 49 96 60 23 11 52 30 63 41 11 11 23 19 25 16 3 -3 7 -40 9
-83 3 -52 1 -71 -4 -54 -6 17 -9 -11 -10 -88 -1 -62 -6 -144 -12 -181 -7 -41
-9 -93 -4 -127 7 -54 8 -57 19 -34 9 20 12 -17 17 -180 3 -113 6 -206 7 -207
1 -2 6 -3 11 -3 6 0 7 15 4 33 -2 17 2 67 11 109 9 42 16 110 16 150 0 51 3
68 10 58 5 -8 10 -31 10 -50 1 -31 2 -32 10 -12 5 12 7 29 4 37 -8 21 13 19
25 -2 8 -14 11 -6 12 37 1 32 4 44 7 30 l5 -25 7 25 c6 23 7 22 11 -12 3 -21
1 -34 -5 -31 -10 7 -1 -94 16 -174 10 -47 15 -53 60 -78 59 -32 176 -54 261
-49 34 2 54 1 45 -2 -20 -6 -22 -13 -9 -33 7 -10 34 -13 112 -13 l104 1 -75
-25 c-55 -18 -111 -28 -210 -34 -325 -22 -430 -35 -430 -52 0 -6 -9 -8 -22 -4
-13 4 -54 9 -93 12 -38 2 -90 9 -115 14 -125 25 -199 32 -289 26 -141 -10
-331 21 -551 89 -163 50 -423 137 -463 155 -39 17 -45 23 -34 34 12 13 14 132
3 163 -9 22 11 24 104 12 82 -11 112 -23 57 -24 -27 0 -33 -31 -17 -78 10 -29
80 -94 134 -123 41 -22 259 -64 335 -64 42 0 128 -7 191 -15 186 -25 273 -29
342 -16 69 14 154 55 169 82 9 18 14 166 8 229 -3 28 1 40 21 57 l25 22 -34 1
c-19 0 -42 -6 -50 -14 -33 -28 -155 -45 -371 -52 -118 -4 -228 -7 -243 -6 -15
1 -25 -3 -22 -8 3 -5 -48 -10 -119 -12 -68 -2 -122 0 -119 5 2 4 52 8 111 9
l107 2 -100 5 c-55 3 -127 3 -160 -1 -74 -9 -235 15 -251 37 -6 8 -18 15 -26
15 -11 0 -14 7 -11 24 4 20 15 26 79 40 53 11 81 13 100 6 28 -11 207 -10 225
1 14 8 -16 16 -98 25 -35 3 -68 13 -74 20 -14 17 -33 18 -59 2 -10 -7 -23 -9
-27 -5 -4 5 -1 12 6 16 13 8 13 17 -2 91 -3 14 -8 46 -12 72 -12 91 -146 451
-162 435 -2 -3 0 -13 5 -24 28 -51 122 -299 122 -320 0 -1 -7 0 -16 4 -14 5
-15 0 -9 -38 4 -24 18 -84 30 -132 21 -78 21 -89 8 -94 -9 -3 -25 -1 -36 6
-17 11 -19 11 -13 -4 5 -14 1 -16 -27 -10 -17 4 -37 13 -43 21 -6 7 -13 11
-16 8 -3 -3 -17 -2 -30 1 -33 8 -71 90 -103 220 -13 55 -31 117 -40 138 -13
31 -14 48 -4 102 6 36 15 62 20 59 5 -3 21 -28 35 -56 14 -27 28 -48 30 -45 6
6 -44 105 -56 112 -5 3 -6 15 -3 26 5 19 8 18 29 -17 13 -21 40 -85 60 -141
20 -57 41 -103 46 -103 6 0 7 8 3 18 -4 9 -22 58 -39 107 -37 101 -66 167 -78
176 -9 6 -5 18 27 93 l17 39 19 -29 c10 -16 17 -35 14 -43 -6 -15 55 -181 66
-181 7 0 -35 124 -52 153 -6 11 -8 21 -5 24 2 3 12 -10 22 -29 29 -55 27 -15
-4 77 -24 72 -26 89 -16 103 21 27 16 37 -6 11 -15 -19 -19 -20 -20 -8 0 18
88 157 112 176 18 16 42 -9 78 -79 14 -26 26 -45 28 -43 6 6 -119 274 -131
282 -5 3 -13 -1 -18 -8 -7 -12 -9 -12 -9 0 0 15 30 44 71 68 26 16 66 71 61
86 -1 4 2 7 8 7 5 0 11 12 11 28 1 20 3 22 6 8 3 -11 16 -28 29 -39 l24 -19
-50 -60 -51 -61 31 -18 c37 -23 47 -24 30 -4 -10 13 -10 19 4 33 9 10 16 24
16 30 0 6 15 10 34 9 30 -2 37 -8 61 -52 17 -31 24 -40 21 -24 -10 48 -88 240
-103 255 -18 18 -25 12 70 69 46 28 83 58 92 75 23 45 37 48 30 6 -5 -27 -4
-36 6 -36 7 0 -13 -27 -45 -59 -57 -57 -59 -61 -50 -93 13 -45 42 -51 36 -7
-3 23 -1 30 7 25 7 -4 19 -2 27 5 11 9 18 9 26 1 7 -7 17 -12 23 -12 5 0 -1 9
-14 19 -26 20 -23 58 3 48 7 -3 18 -1 23 4 7 7 14 0 22 -18 7 -15 23 -41 37
-58 l24 -30 -4 35 c-6 48 -52 168 -77 203 l-20 27 29 0 c16 0 51 11 77 25 60
32 69 27 15 -9 -40 -26 -48 -40 -31 -50 4 -3 14 -26 21 -51 7 -24 17 -42 22
-39 5 3 7 13 3 21 -11 30 5 55 30 49 15 -4 25 -1 28 8 5 13 61 46 77 46 5 0
15 -18 23 -39 22 -53 41 -65 32 -20 -11 55 -46 153 -61 170 -21 23 -17 29 19
29 37 0 122 22 157 40 14 7 38 24 54 39 l29 26 -17 -27 c-19 -30 -15 -44 33
-108 14 -19 34 -57 43 -85 24 -68 22 -36 -2 56 -11 41 -20 83 -20 94 0 11 -6
32 -14 46 -12 24 -12 25 13 26 78 1 149 23 196 62 19 16 19 16 2 -11 -16 -26
-16 -28 2 -45 26 -25 39 -54 52 -112 6 -28 15 -51 21 -51 5 0 7 8 4 18 -3 9
-15 64 -27 122 -11 58 -26 108 -32 112 -6 4 8 4 30 1 72 -10 129 49 152 157 7
30 19 82 26 115 8 33 17 76 20 95 6 34 21 60 35 60 4 0 8 -29 8 -65z m76 -185
c4 -25 3 -31 -4 -20 -5 8 -10 26 -10 39 0 32 6 24 14 -19z m-909 -434 c-10
-14 -22 -26 -27 -26 -5 0 1 13 14 29 28 34 36 33 13 -3z m1695 -18 c0 -16 -22
-4 -39 22 l-16 24 28 -18 c15 -10 27 -23 27 -28z m244 -261 c15 -24 -3 -35
-20 -13 -8 11 -14 24 -14 29 0 13 22 3 34 -16z m-2555 -343 c13 -10 12 -16
-10 -50 -14 -22 -39 -67 -54 -101 l-29 -62 -23 25 c-13 14 -23 27 -23 30 0 3
16 24 35 46 19 22 44 65 57 95 12 30 24 49 27 41 2 -7 11 -18 20 -24z m2951
-74 c16 -25 30 -51 30 -57 0 -7 5 -13 10 -13 6 0 10 5 10 12 0 23 28 -16 35
-47 5 -28 5 -29 -5 -6 l-11 25 -21 -35 c-34 -54 -65 -121 -72 -156 -4 -18 -11
-35 -16 -38 -13 -8 17 108 45 170 29 67 28 77 -26 158 -22 32 -39 61 -39 65 1
8 21 -17 60 -78z m-3093 -132 c-3 -8 -6 -5 -6 6 -1 11 2 17 5 13 3 -3 4 -12 1
-19z m13 -63 c6 -16 4 -37 -7 -67 -22 -56 -31 -68 -50 -61 -12 5 -14 1 -9 -14
9 -29 -42 -142 -55 -122 -6 9 -7 1 -2 -21 6 -35 6 -35 -14 -17 l-21 18 28 72
c15 40 38 90 50 112 12 22 29 62 37 88 14 49 27 53 43 12z m3161 -6 c-12 -19
-21 -27 -21 -19 0 18 30 64 37 57 2 -3 -5 -20 -16 -38z m-191 7 c0 -27 -37
-96 -51 -96 -15 0 -10 74 7 98 20 30 44 28 44 -2z m225 -63 c-2 -8 0 -11 5 -8
9 5 80 -128 80 -150 0 -5 6 -22 14 -36 12 -23 11 -28 -10 -48 -23 -22 -35 -16
-13 6 6 6 9 19 7 29 -2 13 -13 0 -31 -41 -40 -86 -129 -246 -135 -240 -9 8 47
170 88 254 35 72 40 90 34 120 -4 20 -7 39 -6 44 1 4 -4 7 -12 7 -21 0 -61
-59 -97 -141 -56 -130 -61 -141 -64 -137 -2 2 3 39 10 83 14 89 43 160 83 202
24 25 40 89 20 77 -12 -8 -9 5 5 20 10 12 13 10 20 -7 4 -11 5 -27 2 -34z
m-945 -33 c22 -17 23 -19 7 -25 -21 -9 -84 2 -92 15 -20 33 46 40 85 10z m650
-25 c0 -19 4 -35 10 -35 20 0 23 -50 5 -70 -17 -19 -19 -19 -32 -2 -10 12 -16
14 -19 4 -3 -6 -9 -10 -14 -7 -11 7 0 52 16 66 8 6 14 27 14 45 0 19 5 34 10
34 6 0 10 -16 10 -35z m-903 -100 c15 -13 22 -25 15 -25 -19 0 -72 29 -72 40
0 18 28 10 57 -15z m703 -30 c-27 -29 -63 -34 -58 -8 2 9 14 20 28 24 48 13
55 10 30 -16z m13 -40 c-9 -19 -19 -31 -22 -27 -8 12 -61 21 -61 11 0 -4 7
-12 17 -17 15 -9 14 -11 -5 -21 -23 -12 -52 -5 -52 13 0 21 37 44 63 39 17 -3
31 2 44 15 28 31 34 26 16 -13z m-99 11 c-3 -8 -13 -17 -22 -21 -13 -5 -13 -2
3 15 21 24 26 25 19 6z m-2758 -41 c3 -8 1 -52 -6 -97 -7 -46 -13 -112 -15
-148 -1 -36 -7 -99 -14 -140 -11 -68 -8 -154 6 -204 3 -12 1 -16 -6 -12 -6 4
-11 18 -11 32 0 14 -4 33 -9 42 -13 26 -21 282 -10 359 12 86 39 183 51 183 5
0 11 -7 14 -15z m3480 -62 c26 -94 28 -444 3 -510 -24 -63 1 -56 37 10 l28 52
1 227 c0 139 4 227 9 225 17 -6 24 -52 31 -199 18 -384 -15 -528 -248 -1088
-5 -14 -11 -29 -13 -35 -1 -5 -23 -57 -49 -115 -26 -58 -62 -141 -80 -185 -18
-44 -53 -130 -78 -191 -25 -61 -66 -141 -92 -177 -46 -66 -64 -84 -50 -49 4 9
9 28 11 42 3 13 10 30 16 37 7 9 7 13 -1 13 -15 0 -53 -85 -53 -119 0 -26 -61
-124 -93 -151 -14 -12 -18 -12 -26 1 -5 9 -9 10 -9 2 0 -7 8 -16 17 -21 15 -9
14 -13 -11 -46 -15 -20 -31 -34 -35 -31 -5 2 -57 -45 -117 -106 -60 -61 -143
-135 -184 -165 -41 -29 -111 -87 -155 -129 -44 -42 -109 -92 -145 -112 -36
-20 -81 -49 -101 -64 -19 -16 -48 -30 -62 -33 -15 -3 -39 -13 -55 -24 -34 -24
-138 -76 -172 -87 -14 -4 -38 -17 -54 -28 -25 -17 -32 -18 -50 -7 -42 27 -291
150 -302 150 -6 0 -30 14 -53 31 -24 17 -64 42 -89 56 -94 51 -217 140 -298
215 -126 117 -364 368 -409 431 -22 31 -72 100 -111 153 -58 80 -83 127 -139
263 -37 91 -96 231 -130 311 -63 144 -139 329 -176 425 -11 28 -24 59 -28 70
-19 44 -81 233 -91 280 -18 78 -34 232 -31 303 1 32 4 41 14 36 8 -5 8 -2 -2
9 -7 9 -10 17 -5 17 5 0 10 64 12 142 2 139 6 178 20 178 4 0 8 -101 8 -225
l1 -225 28 -55 c16 -30 34 -55 42 -55 7 0 13 -7 13 -15 0 -8 -4 -15 -10 -15
-20 0 -9 -68 19 -121 15 -30 34 -72 41 -94 23 -72 83 -179 90 -161 4 13 9 7
19 -21 8 -21 26 -65 41 -98 30 -66 66 -167 100 -285 28 -97 84 -250 155 -425
31 -77 67 -178 81 -225 27 -95 63 -171 82 -178 9 -3 7 9 -7 36 -11 22 -18 42
-15 44 2 3 -5 27 -16 54 -12 27 -40 103 -62 169 -22 66 -46 131 -53 145 -55
106 -139 336 -160 440 -4 19 -18 58 -30 87 -27 60 -64 198 -71 263 -4 39 -2
47 18 59 16 10 23 10 26 2 2 -6 12 -11 22 -11 15 0 22 -15 35 -77 9 -43 21
-89 27 -103 22 -54 158 -440 184 -525 15 -49 34 -94 41 -100 7 -5 26 -66 43
-135 67 -278 101 -400 111 -400 3 0 -16 91 -42 203 -27 111 -47 207 -45 212 2
6 6 -6 11 -25 4 -19 24 -54 44 -76 20 -23 49 -63 65 -88 19 -32 33 -45 43 -41
9 3 22 0 29 -6 7 -6 39 -26 70 -45 53 -32 59 -33 73 -19 15 15 14 18 -8 36
-13 10 -35 22 -50 26 -14 3 -43 17 -63 30 -21 12 -44 23 -52 23 -8 0 -16 7
-20 15 -6 17 9 21 19 5 3 -5 29 -16 57 -25 53 -15 102 -11 95 9 -21 57 -21 59
14 53 54 -9 264 -86 262 -96 -1 -5 15 -28 36 -52 26 -30 42 -41 54 -36 15 5
11 13 -23 43 -22 20 -39 39 -36 41 5 6 116 -67 151 -100 17 -15 45 -31 62 -36
44 -13 68 -39 68 -74 0 -26 7 -34 44 -54 24 -12 50 -32 58 -43 28 -40 82 -12
83 43 0 7 9 23 20 37 17 22 19 35 13 110 -6 86 -16 115 -39 106 -7 -3 -28 4
-48 14 -22 11 -71 21 -129 25 -159 12 -434 89 -512 144 -27 19 -78 47 -112 63
-35 15 -63 30 -63 32 0 3 16 2 36 -1 31 -5 36 -3 33 12 -2 10 -13 23 -23 29
-67 38 -133 82 -143 95 -11 14 -13 14 -14 1 -1 -8 -1 -18 0 -22 3 -18 -17 -6
-27 17 -6 14 -18 25 -26 25 -16 0 -41 28 -32 37 3 3 17 1 31 -5 26 -12 45 1
23 15 -7 4 -20 17 -28 27 -14 18 -13 19 3 13 9 -3 17 -2 17 3 0 6 -5 10 -12
10 -6 0 -9 3 -6 6 4 3 19 -1 36 -10 33 -17 73 -11 65 10 -7 20 8 17 37 -8 16
-14 21 -22 13 -25 -25 -9 -13 -25 13 -19 21 6 35 -1 78 -38 52 -44 52 -44 116
-40 36 3 75 5 88 5 32 -1 93 -34 148 -82 27 -23 64 -49 84 -57 19 -8 47 -23
62 -33 34 -24 48 -24 48 1 0 11 4 20 8 20 14 0 32 -23 32 -41 0 -11 10 -18 33
-21 17 -3 40 -8 50 -13 13 -5 17 -2 17 13 0 23 31 53 37 36 2 -6 11 -20 19
-30 14 -18 15 -18 8 6 -7 24 -6 24 17 8 13 -8 29 -31 34 -49 12 -41 23 -59 36
-59 13 0 11 57 -6 147 -18 91 -19 123 -5 123 6 0 10 -11 10 -25 0 -14 4 -33 9
-43 5 -9 17 -51 27 -92 24 -104 41 -140 63 -140 22 0 34 33 18 49 -8 8 -8 11
0 11 5 0 23 12 38 26 19 18 31 22 38 15 15 -15 -8 -61 -32 -61 -10 0 -21 -8
-24 -17 -2 -10 -8 -25 -11 -34 -10 -24 20 -32 54 -14 16 8 46 15 66 15 21 0
64 7 97 17 58 16 82 38 58 52 -9 6 -6 14 8 32 11 13 20 18 21 12 0 -24 90 -4
90 20 0 5 7 7 15 3 8 -3 18 0 22 7 5 7 17 17 28 23 11 6 22 21 23 34 2 13 14
31 25 41 27 22 38 24 31 4 -3 -8 -1 -28 4 -45 13 -35 4 -42 -88 -71 -41 -12
-55 -22 -55 -35 0 -29 68 -22 149 15 60 29 68 35 64 56 -4 20 1 26 33 39 36
15 53 36 29 36 -33 0 3 27 99 73 59 30 122 64 140 76 17 12 31 18 31 12 0 -16
21 -13 42 6 30 27 20 -2 -17 -52 -20 -25 -33 -50 -30 -54 6 -10 -35 -22 -47
-15 -5 4 -2 14 7 24 35 38 -7 30 -75 -14 -38 -25 -73 -46 -78 -46 -17 0 -36
-30 -25 -41 6 -6 36 0 86 20 43 16 77 28 77 26 0 -5 -153 -89 -165 -91 -5 -1
-32 -15 -60 -31 -59 -34 -141 -64 -285 -103 -58 -15 -118 -33 -133 -39 -16 -6
-47 -11 -70 -11 -68 0 -159 -20 -210 -46 -26 -14 -53 -22 -60 -19 -7 4 -4 0 6
-8 13 -11 17 -29 17 -76 0 -39 -4 -60 -10 -56 -6 4 -10 -8 -10 -29 0 -20 5
-36 10 -36 6 0 10 -13 10 -29 0 -32 24 -96 41 -106 16 -10 23 3 11 18 -9 11
-6 16 14 25 30 14 54 15 54 3 0 -5 -7 -11 -15 -15 -8 -3 -15 -12 -15 -20 0
-26 125 -16 191 16 30 14 75 33 102 41 26 9 54 23 63 32 9 8 20 13 25 10 5 -4
9 -2 9 3 0 5 19 16 43 25 l42 16 -25 -19 c-14 -11 -30 -24 -36 -29 -33 -27
-369 -151 -429 -158 -79 -10 -117 -70 -91 -146 8 -24 12 -54 9 -65 -14 -57 26
-97 48 -48 9 18 19 24 50 25 21 1 47 2 57 2 32 2 77 28 97 58 21 33 59 45 76
25 17 -20 38 -17 75 11 43 33 49 32 23 -4 -12 -16 -18 -34 -14 -41 6 -9 9 -9
15 -1 3 7 29 17 56 24 44 11 49 15 46 37 -2 28 1 33 46 75 28 25 34 27 43 15
7 -12 8 -9 7 10 -3 20 2 25 32 31 19 3 44 10 54 14 15 6 17 5 11 -5 -5 -9 -4
-11 4 -6 6 4 9 11 6 16 -3 5 5 14 17 21 13 7 42 33 65 58 36 39 47 61 58 121
5 25 18 49 30 53 17 7 65 -14 65 -28 -1 -22 -27 -58 -34 -46 -13 20 -24 12
-50 -35 -21 -38 -23 -45 -8 -39 9 4 22 8 29 8 7 0 10 4 7 9 -3 4 -2 14 2 20 6
9 10 5 14 -12 4 -14 2 -32 -4 -40 -9 -13 -9 -13 6 -2 9 8 14 20 11 28 -5 14
34 36 50 27 4 -2 7 -1 6 4 -4 15 13 43 22 37 5 -3 4 7 -1 21 -11 28 -5 49 11
40 5 -3 6 0 4 7 -3 8 1 32 9 55 8 23 12 44 9 47 -4 3 -1 17 7 30 7 13 44 116
82 228 179 525 268 791 268 803 0 17 27 27 34 12 3 -9 5 -8 5 1 1 7 -5 15 -13
18 -11 4 -13 12 -6 29 5 13 6 26 2 30 -4 4 2 5 12 3 11 -1 21 4 23 12 4 13 3
13 -6 0 -7 -10 -11 -11 -11 -3 0 9 -7 10 -26 2 -15 -5 -29 -7 -32 -4 -3 3 9
10 26 16 18 6 32 14 32 18 0 4 16 12 35 18 19 6 35 9 35 7 0 -3 -10 -23 -22
-45 -22 -38 -22 -41 -5 -53 17 -13 17 -17 -4 -82 -12 -38 -37 -100 -55 -139
-17 -39 -37 -97 -44 -128 -6 -32 -15 -55 -20 -52 -4 3 -6 -3 -4 -12 3 -10 -9
-58 -26 -108 -17 -49 -36 -106 -42 -125 -9 -31 -12 -33 -19 -15 -4 12 -8 14
-8 5 0 -8 4 -24 8 -35 8 -19 8 -19 19 1 18 33 88 224 111 299 11 39 41 112 65
162 25 50 44 104 44 120 -1 35 28 104 41 101 10 -3 91 153 91 174 0 6 14 37
30 70 17 33 33 79 36 101 5 35 2 44 -15 54 -23 15 -22 18 -42 -96 -10 -63 -32
-109 -47 -103 -4 2 -11 -13 -15 -32 -8 -31 -11 -34 -27 -24 -14 9 -33 4 -95
-26 -88 -41 -114 -42 -33 -1 33 17 68 46 91 76 23 29 43 46 50 42 7 -3 9 -3 5
2 -9 10 9 45 23 45 6 0 7 -4 4 -10 -10 -16 1 -11 16 7 10 11 10 14 2 9 -16 -9
-17 -13 8 64 39 122 58 222 46 242 -10 16 -13 16 -29 1 -17 -15 -18 -13 -19
48 0 35 -4 90 -8 122 -5 40 -3 70 7 100 17 52 20 55 33 37 9 -12 10 -12 5 3
-3 10 -6 33 -6 50 0 24 -3 28 -10 17 -15 -23 -12 3 5 44 9 20 19 35 24 32 4
-3 16 -36 27 -73z m-786 7 c13 -11 18 -20 11 -20 -18 0 -51 19 -51 30 0 16 15
12 40 -10z m-990 -34 c0 -2 -12 -12 -27 -21 l-28 -18 19 21 c17 20 36 29 36
18z m922 -88 c4 -35 -14 -39 -26 -6 -11 31 0 72 14 48 4 -8 10 -27 12 -42z
m318 42 c27 -17 -2 -33 -34 -19 -19 9 -23 15 -14 21 17 10 30 10 48 -2z
m-2850 -50 c5 -19 6 -29 1 -24 -10 10 -26 72 -17 63 4 -4 11 -21 16 -39z
m2678 -10 c26 -35 27 -40 6 -40 -18 0 -36 16 -53 48 -19 35 20 29 47 -8z m62
-10 c23 -21 27 -30 16 -30 -24 0 -66 30 -66 46 0 22 15 17 50 -16z m45 20 c3
-5 -1 -10 -9 -10 -8 0 -18 5 -21 10 -3 6 1 10 9 10 8 0 18 -4 21 -10z m-2483
-75 c3 -13 1 -22 -3 -19 -9 5 -13 44 -5 44 2 0 6 -11 8 -25z m2389 -17 c-27
-10 -53 6 -44 27 4 12 10 12 36 -2 l32 -16 -24 -9z m589 -123 c0 -126 -4 -147
-50 -250 -10 -22 -29 -73 -42 -114 l-23 -74 -60 -27 c-33 -15 -71 -31 -85 -35
-22 -6 -21 -3 13 31 31 29 41 34 48 23 6 -11 8 -9 9 6 0 11 3 43 6 71 5 41 3
51 -10 51 -8 0 -12 -5 -9 -10 7 -12 -104 -118 -172 -163 -27 -19 -60 -34 -71
-34 -12 0 -62 -13 -111 -29 -104 -33 -184 -54 -190 -48 -2 2 18 10 44 17 26 7
56 14 66 17 9 2 17 8 17 13 0 4 35 16 78 25 98 22 130 36 198 87 44 33 57 50
66 84 7 25 16 40 22 36 6 -3 4 5 -5 18 -9 14 -25 25 -35 25 -11 1 -24 3 -29 7
-6 3 -66 9 -135 12 -125 7 -273 33 -265 47 5 7 88 3 112 -6 7 -2 10 2 6 12 -4
9 1 22 13 31 18 14 18 14 -3 9 -29 -6 -31 9 -2 16 13 4 22 0 25 -11 15 -49 58
-68 91 -40 13 10 17 10 20 1 8 -22 -1 -27 -42 -25 -33 2 -37 0 -22 -9 10 -6
55 -12 100 -13 45 -2 99 -6 119 -11 27 -5 47 -3 72 9 19 9 39 16 46 16 44 0
107 92 124 180 10 59 50 180 58 180 5 0 8 -56 8 -125z m-122 -10 c-12 -25 -29
-45 -37 -45 -10 0 -12 3 -5 8 5 4 20 24 33 45 31 51 35 47 9 -8z m-828 6 c0
-6 -4 -13 -10 -16 -5 -3 -10 1 -10 9 0 9 5 16 10 16 6 0 10 -4 10 -9z m-2280
-51 c0 -13 -1 -13 -10 0 -5 8 -10 22 -10 30 0 13 1 13 10 0 5 -8 10 -22 10
-30z m3101 -22 c-25 -39 -27 -34 -5 11 9 18 18 30 21 27 3 -3 -4 -20 -16 -38z
m-3081 -20 c0 -26 43 -98 58 -98 15 0 15 -2 2 -10 -28 -18 -38 -10 -59 52 -24
69 -25 82 -11 73 6 -3 10 -11 10 -17z m2455 2 c92 -20 117 -30 105 -45 -8 -10
-7 -15 2 -19 7 -3 -4 -4 -24 -1 -27 4 -38 2 -39 -7 0 -10 -2 -10 -6 0 -11 28
-52 62 -82 68 -17 4 -34 11 -37 16 -4 6 1 8 12 4 11 -3 42 -10 69 -16z m-1958
-36 c-3 -3 -12 -4 -19 -1 -8 3 -5 6 6 6 11 1 17 -2 13 -5z m1593 -4 c0 -5 -2
-10 -4 -10 -3 0 -8 5 -11 10 -3 6 -1 10 4 10 6 0 11 -4 11 -10z m925 -10 c-3
-5 -12 -10 -18 -10 -7 0 -6 4 3 10 19 12 23 12 15 0z m-3357 -38 c11 -11 18
-37 20 -72 3 -50 15 -109 29 -146 4 -10 -2 -14 -20 -14 -20 0 -28 7 -36 33
-10 28 -21 217 -14 217 2 0 11 -8 21 -18z m3816 -44 c-11 -141 -16 -169 -30
-183 -8 -8 -21 -12 -29 -9 -8 4 -15 7 -15 8 0 0 5 17 10 36 6 19 15 65 20 103
16 112 53 149 44 45z m-3564 -19 c29 -96 19 -99 -13 -5 -14 42 -22 76 -17 76
5 0 19 -32 30 -71z m1885 61 c4 -6 -10 -10 -34 -10 -23 0 -41 5 -41 10 0 6 15
10 34 10 19 0 38 -4 41 -10z m895 0 c13 -8 13 -10 -2 -10 -9 0 -20 5 -23 10
-8 13 5 13 25 0z m523 -66 c-14 -41 -27 -73 -30 -71 -7 8 37 147 47 147 5 0
-3 -34 -17 -76z m-1209 16 c10 -10 -114 0 -133 10 -8 5 16 6 55 3 38 -3 73 -9
78 -13z m183 -6 c-3 -3 -12 -4 -19 -1 -8 3 -5 6 6 6 11 1 17 -2 13 -5z m281
-11 c-10 -2 -26 -2 -35 0 -10 3 -2 5 17 5 19 0 27 -2 18 -5z m-2130 -40 c-10
-2 -26 -2 -35 0 -10 3 -2 5 17 5 19 0 27 -2 18 -5z m-263 -229 c20 -8 35 -18
32 -21 -7 -7 -77 19 -77 29 0 11 2 10 45 -8z m-131 -53 c-7 -7 -12 3 -18 34
l-6 30 14 -30 c8 -16 12 -32 10 -34z m3237 28 c-5 -13 -10 -19 -10 -12 -1 15
10 45 15 40 3 -2 0 -15 -5 -28z m-3021 -40 c0 -12 5 -17 10 -14 19 12 41 -15
30 -35 -6 -10 -10 -29 -10 -42 -1 -14 -11 2 -25 41 -27 69 -30 85 -15 76 6 -3
10 -15 10 -26z m2813 11 c-4 -17 -8 -18 -20 -8 -13 10 -13 13 4 19 10 4 19 8
20 8 0 1 -1 -8 -4 -19z m-656 4 c-3 -3 -12 -4 -19 -1 -8 3 -5 6 6 6 11 1 17
-2 13 -5z m590 -1 c-4 -3 -2 -12 4 -19 15 -18 -3 -25 -25 -9 -20 15 -14 35 11
35 9 0 13 -3 10 -7z m-677 -14 c-25 -4 -58 -7 -75 -7 -25 1 -24 2 10 8 22 4
56 7 75 7 31 0 30 0 -10 -8z m780 -38 c0 -9 -27 -41 -34 -41 -2 0 -1 11 2 25
4 23 32 37 32 16z m-76 -16 c-4 -8 -10 -12 -15 -9 -11 6 -2 24 11 24 5 0 7 -7
4 -15z m13 -37 c-3 -8 -6 -5 -6 6 -1 11 2 17 5 13 3 -3 4 -12 1 -19z m-10 -40
c-3 -8 -6 -5 -6 6 -1 11 2 17 5 13 3 -3 4 -12 1 -19z m35 -23 c-2 -14 -8 -25
-13 -25 -10 0 -11 12 -3 34 10 25 22 19 16 -9z m-2266 -101 c32 -4 77 -17 99
-30 22 -12 76 -30 121 -39 73 -16 88 -16 167 -3 l86 15 46 -54 c42 -48 125
-103 157 -103 6 0 22 -9 34 -21 20 -19 26 -20 58 -8 19 7 38 20 42 28 4 9 10
68 13 131 5 91 9 115 21 115 21 0 28 -38 29 -172 l1 -123 24 0 c14 0 28 -4 31
-10 9 -15 55 -12 55 4 0 14 29 31 38 21 3 -2 -1 -11 -7 -19 -7 -8 -10 -20 -6
-26 8 -13 48 -13 62 1 6 6 39 13 73 15 34 3 71 9 81 15 11 5 24 7 30 3 15 -9
49 26 49 51 0 18 9 25 44 35 58 16 90 6 83 -26 -4 -21 -1 -24 28 -24 18 0 46
5 63 11 50 17 59 5 14 -19 -50 -26 -137 -40 -408 -66 -17 -2 -36 -6 -43 -10
-13 -8 -82 -17 -152 -19 -40 -2 -45 -5 -41 -21 5 -17 1 -18 -34 -11 -71 13
-158 26 -213 31 -29 2 -58 7 -63 10 -6 4 -61 10 -124 15 -109 8 -284 50 -284
67 0 4 -55 18 -122 31 -68 12 -174 35 -235 50 -62 16 -124 26 -137 24 -13 -3
-38 -18 -55 -34 -18 -16 -34 -29 -35 -29 -2 0 -9 21 -16 46 -12 42 -12 48 3
59 15 11 15 14 3 25 -9 6 -19 9 -24 6 -5 -3 -16 12 -25 34 -8 22 -13 40 -10
40 2 0 17 -13 33 -29 57 -57 119 -85 195 -88 39 -2 84 -6 101 -9 52 -9 99 27
57 43 -29 11 -39 25 -51 75 -7 26 -12 49 -12 52 0 3 22 -8 48 -24 32 -19 68
-32 108 -36z m2194 26 c0 -5 -6 -10 -12 -10 -9 0 -8 -4 2 -10 10 -6 11 -10 3
-10 -7 0 -16 -12 -19 -26 -4 -15 -12 -23 -19 -20 -7 2 -21 -4 -30 -14 -16 -18
-17 -18 -37 2 -23 23 -25 20 43 64 56 36 69 40 69 24z m-150 -54 c0 -3 -4 -8
-10 -11 -5 -3 -10 -1 -10 4 0 6 5 11 10 11 6 0 10 -2 10 -4z m-30 -22 c0 -9
-128 -64 -147 -63 -21 1 27 23 145 68 1 1 2 -2 2 -5z m126 -121 c-8 -16 -22
-65 -31 -108 -20 -98 -122 -399 -213 -630 -8 -22 -22 -47 -29 -55 -11 -12 -13
-10 -13 13 0 30 -20 43 -47 32 -10 -3 -19 -6 -21 -5 -1 0 -17 -7 -35 -16 -31
-15 -30 -14 11 24 23 22 53 43 66 46 17 4 25 15 30 41 4 19 11 35 15 35 5 0
12 8 16 18 5 14 4 15 -6 5 -19 -19 -33 -16 -19 5 7 9 0 4 -14 -12 l-27 -28 7
28 c8 31 31 60 40 51 3 -3 19 10 36 29 29 33 64 50 38 19 -7 -8 -9 -15 -5 -15
4 0 2 -7 -5 -15 -7 -9 -10 -18 -6 -22 8 -8 35 27 36 47 0 8 7 24 15 34 18 24
20 66 3 66 -7 0 -4 7 7 16 17 13 18 16 5 24 -8 5 -25 10 -36 10 -34 0 -35 25
-2 56 38 37 68 95 62 121 -4 14 6 32 30 58 38 40 58 90 46 115 -9 18 13 87 26
80 5 -3 14 5 19 18 9 21 10 20 13 -17 2 -22 -4 -53 -12 -68z m-278 46 c9 -1 1
-5 -18 -9 -19 -5 -55 -16 -79 -25 -54 -20 -67 -12 -15 9 22 9 46 20 54 25 8 6
21 8 28 5 8 -2 21 -5 30 -5z m-2163 -311 c-8 -5 -15 -17 -16 -26 0 -16 -38 82
-39 101 0 5 16 -8 35 -29 30 -32 33 -39 20 -46z m-1 -81 c4 -19 3 -26 -4 -22
-5 3 -10 18 -10 32 0 32 5 28 14 -10z m1810 -16 c3 -4 -6 -6 -19 -3 -14 2 -25
6 -25 8 0 8 39 4 44 -5z m-404 -211 c0 -5 -7 -10 -15 -10 -8 0 -15 5 -15 10 0
6 7 10 15 10 8 0 15 -4 15 -10z m37 4 c-3 -3 -12 -4 -19 -1 -8 3 -5 6 6 6 11
1 17 -2 13 -5z m543 -218 c0 -2 -8 -10 -17 -17 -16 -13 -17 -12 -4 4 13 16 21
21 21 13z m-85 -62 c-24 -18 -83 -50 -73 -39 10 10 81 54 88 54 3 0 -4 -7 -15
-15z m412 -92 c-10 -10 -17 -23 -17 -29 0 -5 -11 -23 -25 -39 -14 -16 -25 -24
-25 -18 0 6 7 17 15 24 9 7 23 28 31 46 9 19 21 34 27 34 5 0 3 -8 -6 -18z
m-2277 -64 c1 -20 -30 8 -39 35 l-11 32 24 -30 c14 -16 25 -33 26 -37z m-70
18 c0 -19 5 -38 10 -41 6 -3 10 -18 10 -33 0 -18 3 -23 8 -14 6 9 12 6 21 -11
10 -19 10 -35 -4 -87 -9 -35 -22 -76 -30 -90 -7 -14 -23 -70 -35 -125 l-23
-99 -23 59 c-16 43 -23 53 -23 35 -1 -18 -4 -21 -10 -12 -5 8 3 49 21 105 39
124 58 220 58 290 0 31 4 57 10 57 6 0 10 -15 10 -34z m2378 -38 c-4 -26 12
-105 43 -218 6 -19 14 -51 19 -70 5 -19 19 -60 30 -90 27 -75 24 -117 -17
-185 -22 -38 -25 -6 -4 49 12 32 16 58 11 61 -6 4 -5 14 2 25 9 14 10 22 1 31
-8 8 -14 -2 -21 -37 -6 -27 -8 -52 -6 -56 3 -4 0 -8 -5 -8 -6 0 -11 -7 -11
-17 0 -18 -13 -10 -16 10 -6 39 -26 97 -34 97 -11 0 -46 152 -58 250 -10 76
-2 117 20 104 6 -4 8 -3 5 3 -4 6 0 19 8 29 8 10 15 29 15 42 0 14 4 21 11 16
6 -3 9 -20 7 -36z m-2077 -253 c19 6 34 -10 43 -48 6 -26 186 -217 204 -217 5
0 37 -32 72 -71 43 -48 57 -69 42 -65 -26 8 -90 -8 -117 -29 -18 -15 -17 -15
12 0 18 8 49 15 70 14 l38 -1 -44 -9 c-55 -11 -124 -51 -150 -88 -33 -45 -25
-44 22 3 42 42 115 76 163 76 12 0 24 5 26 12 2 6 51 -41 108 -105 57 -64 106
-117 110 -117 4 0 14 -15 21 -32 7 -18 32 -56 56 -85 23 -29 52 -73 64 -98 12
-26 33 -52 46 -58 12 -5 23 -14 23 -18 0 -4 10 -10 23 -12 12 -2 0 -5 -28 -5
-27 -1 -57 3 -65 8 -13 8 -12 10 3 10 36 0 7 17 -40 24 -165 22 -390 105 -604
221 -26 15 -105 95 -148 150 -12 17 -20 22 -17 12 4 -12 -15 -2 -53 28 -67 53
-99 85 -84 85 6 0 16 -7 23 -15 7 -9 27 -26 44 -38 22 -15 16 -5 -23 38 -105
116 -114 132 -107 201 3 33 21 105 39 159 l33 98 17 -66 c15 -61 56 -164 57
-143 0 6 14 -5 31 -22 17 -18 35 -32 40 -32 22 0 110 -77 116 -100 3 -14 12
-33 20 -42 12 -13 31 -109 33 -162 0 -6 7 -1 15 10 21 27 18 93 -6 168 -20 60
-67 126 -91 126 -5 0 7 -15 26 -34 20 -18 36 -39 36 -45 0 -32 -224 182 -225
215 0 5 -4 24 -9 42 -12 51 -1 48 19 -5 24 -67 73 -138 109 -159 27 -15 26
-13 -11 24 -66 65 -104 155 -107 254 l-1 47 55 -55 c35 -35 60 -52 71 -49z
m2025 -165 c27 -102 30 -126 22 -165 -10 -48 -23 -59 -25 -23 -3 39 -25 121
-45 166 -22 52 -25 90 -4 53 13 -23 14 -20 11 38 -2 34 0 59 3 56 4 -4 21 -60
38 -125z m-286 37 c0 -2 -19 -21 -42 -42 l-43 -40 40 43 c36 39 45 47 45 39z
m-2117 -37 c3 -11 1 -18 -4 -14 -5 3 -9 12 -9 20 0 20 7 17 13 -6z m-3 -69
c-1 -9 -7 -29 -14 -46 l-14 -30 -15 36 c-16 35 -12 76 9 110 7 13 34 -42 34
-70z m2609 -55 c-3 -24 2 -34 15 -32 8 0 34 -27 58 -61 41 -59 139 -153 159
-153 5 0 28 -13 50 -30 23 -16 46 -27 51 -24 5 3 17 -1 26 -9 9 -8 40 -22 67
-30 48 -14 50 -15 47 -48 -2 -19 -12 -41 -21 -49 -10 -8 -26 -35 -35 -60 -14
-36 -68 -141 -82 -159 -2 -2 -16 6 -32 18 -32 23 -47 27 -37 11 3 -6 -1 -7
-10 -3 -11 4 -13 8 -6 13 8 4 5 12 -8 24 -20 18 -20 19 5 52 23 29 28 32 41
19 21 -21 24 -19 12 9 -8 17 -7 42 4 95 8 39 11 71 6 71 -4 0 -11 -10 -14 -21
-6 -16 -9 -18 -15 -8 -6 9 -10 6 -15 -13 l-7 -27 -46 42 c-118 107 -267 277
-267 305 0 10 -3 19 -7 22 -4 3 2 21 14 40 12 19 21 46 20 60 -2 22 0 20 13
-9 8 -19 15 -39 14 -45z m-2635 -56 c13 -23 15 -35 7 -38 -6 -2 -9 -8 -5 -13
7 -12 -5 -49 -17 -49 -5 0 -62 -46 -126 -101 -65 -56 -131 -110 -148 -120 -16
-11 -26 -19 -22 -19 5 0 5 -6 1 -12 -6 -9 -10 -5 -14 12 -3 14 -11 25 -17 25
-12 0 -53 43 -53 55 0 8 85 70 97 70 16 0 117 92 148 134 17 23 40 51 51 62
12 12 30 36 40 53 l19 32 10 -28 c5 -15 19 -44 29 -63z m57 23 c-12 -20 -14
-14 -5 12 4 9 9 14 11 11 3 -2 0 -13 -6 -23z m2439 -15 c0 -6 -7 -5 -15 2 -8
7 -15 17 -15 22 0 6 7 5 15 -2 8 -7 15 -17 15 -22z m-2463 -8 c1 -11 0 -20 -2
-20 -2 0 -9 9 -15 20 -8 15 -8 20 3 20 7 0 13 -9 14 -20z m138 -78 c9 -12 39
-40 68 -61 29 -21 87 -71 130 -110 80 -73 123 -104 217 -155 159 -85 210 -109
303 -142 56 -19 90 -32 75 -29 -16 3 -28 2 -28 -3 0 -4 46 -17 102 -28 64 -12
103 -24 106 -33 4 -11 -3 -12 -34 -6 -22 4 -42 11 -45 17 -8 13 -129 24 -129
11 0 -5 35 -18 78 -28 96 -23 124 -38 57 -29 -151 18 -342 88 -495 182 -54 34
-72 42 -50 23 90 -76 259 -157 415 -198 88 -24 189 -43 223 -43 12 0 22 -5 22
-10 0 -6 22 -10 53 -9 28 1 73 -2 100 -6 28 -4 52 -3 60 3 6 5 37 12 67 15 30
2 75 10 99 16 66 18 61 5 -6 -14 -181 -53 -338 -57 -503 -15 -207 54 -521 199
-614 283 -39 36 -83 72 -136 113 -19 15 -52 44 -74 63 -34 32 -51 54 -108 138
-19 29 -32 102 -22 127 5 14 10 11 30 -16 12 -18 30 -43 39 -56z m2282 1 c-14
-26 -42 -66 -62 -88 l-36 -40 33 50 c18 28 44 72 58 98 14 26 26 43 28 38 2
-5 -8 -31 -21 -58z m151 -28 c-7 -8 -38 23 -38 38 0 6 10 2 22 -10 12 -13 19
-25 16 -28z m-1721 29 c-3 -3 -12 -4 -19 -1 -8 3 -5 6 6 6 11 1 17 -2 13 -5z
m-763 -77 c21 -32 37 -59 35 -62 -6 -5 -89 117 -89 130 0 12 7 3 54 -68z m846
48 c14 -8 21 -14 15 -14 -5 0 -21 6 -35 14 -14 8 -20 14 -15 14 6 0 21 -6 35
-14z m1389 -30 c0 -5 -4 -3 -9 5 -5 8 -9 22 -9 30 0 16 17 -16 18 -35z m231
-13 c0 -8 12 -31 26 -50 19 -24 29 -30 34 -21 6 9 30 -7 87 -58 124 -113 127
-116 120 -164 -3 -23 -9 -45 -14 -50 -12 -11 -68 42 -153 146 -41 51 -69 79
-65 65 8 -25 8 -25 -14 -6 -14 13 -19 26 -15 39 5 15 3 19 -9 14 -10 -4 -18 1
-22 14 -4 10 -11 19 -17 19 -5 0 -7 7 -4 16 4 9 1 24 -6 32 -11 13 -10 15 5 9
16 -6 18 -3 12 26 l-6 32 21 -24 c11 -13 20 -30 20 -39z m-2053 1 c-3 -10 -5
-2 -5 17 0 19 2 27 5 18 2 -10 2 -26 0 -35z m1042 23 c-2 -2 -15 -7 -29 -10
l-25 -7 25 15 c21 12 42 14 29 2z m-1478 -44 c21 -37 44 -57 89 -80 16 -8 18
-11 5 -7 -17 4 -17 2 4 -13 13 -9 49 -40 80 -68 89 -81 168 -142 219 -169 26
-14 62 -36 79 -49 94 -68 515 -226 603 -226 37 0 39 -2 46 -35 3 -19 14 -39
23 -44 14 -8 16 -33 18 -163 1 -84 4 -201 6 -260 2 -60 3 -108 2 -108 -1 0
-16 7 -34 16 -18 9 -35 14 -38 11 -3 -3 11 -12 30 -20 19 -8 38 -20 41 -26 9
-15 1 -14 -32 3 -15 7 -44 16 -64 20 -47 8 -129 86 -149 139 -7 20 -19 37 -26
37 -9 0 -4 -14 13 -42 53 -85 117 -139 184 -153 19 -4 46 -16 59 -26 l24 -19
-32 0 c-48 0 -180 29 -229 50 -24 11 -60 22 -80 26 -20 4 -42 11 -49 16 -6 5
-35 11 -64 13 -37 2 -60 10 -75 24 -12 12 -35 24 -50 27 -36 7 -54 21 -76 59
-10 17 -22 29 -27 28 -5 -1 -19 13 -32 32 -13 19 -30 35 -38 35 -8 0 6 -22 30
-48 24 -27 47 -47 51 -45 7 4 22 -16 16 -22 -2 -2 -21 4 -43 14 -22 10 -53 21
-70 24 -26 6 -27 6 -10 -4 11 -7 43 -27 70 -45 28 -18 69 -37 92 -42 23 -5 62
-21 85 -34 44 -26 236 -93 243 -86 3 2 -28 15 -68 27 -100 33 -121 41 -115 47
3 2 80 -20 171 -51 91 -30 180 -55 196 -55 17 0 31 -4 31 -10 0 -6 34 -10 81
-10 51 0 78 4 74 10 -4 6 9 10 32 10 21 0 110 24 198 54 110 37 162 50 167 42
5 -7 27 0 68 23 34 18 64 31 66 28 11 -11 69 20 191 100 20 14 -37 -4 -99 -31
-21 -9 -38 -14 -38 -11 0 12 112 114 132 121 72 22 149 108 182 202 8 23 26
54 40 69 27 29 41 87 31 131 -3 15 -2 39 3 52 l9 25 7 -23 c12 -37 25 -25 15
14 -15 53 -7 72 12 30 9 -19 12 -33 8 -30 -14 8 -10 -10 7 -34 30 -43 104
-182 104 -195 0 -18 -86 -92 -235 -201 -36 -26 -64 -50 -62 -52 6 -6 126 63
152 86 11 10 45 34 75 53 31 19 62 42 69 51 18 21 28 20 36 -4 3 -11 11 -20
16 -20 6 0 5 8 -1 21 -12 22 -6 54 9 45 5 -3 20 -28 34 -55 l26 -49 -62 -48
c-34 -27 -64 -51 -67 -55 -3 -4 -54 -39 -115 -78 -99 -65 -295 -169 -400 -213
-212 -88 -335 -125 -585 -173 -187 -36 -646 87 -980 263 -75 40 -218 123 -245
144 -5 4 -35 27 -65 50 -30 24 -77 60 -105 81 -57 42 -245 226 -245 239 0 4
-8 16 -17 26 -43 42 -94 112 -123 167 -52 97 -97 188 -104 213 -4 12 -14 22
-22 22 -9 0 -14 11 -14 29 0 16 -2 35 -5 43 -4 9 11 17 51 26 31 8 57 12 59
10 5 -5 48 -102 49 -110 1 -4 7 -13 14 -19 6 -7 12 -17 12 -22 0 -5 18 -32 40
-59 22 -28 40 -53 41 -57 4 -30 12 -50 45 -96 20 -30 42 -53 48 -52 6 1 11 -7
11 -18 1 -11 6 -19 12 -18 6 1 29 -21 51 -50 79 -102 272 -260 417 -342 42
-23 47 -25 30 -7 -11 12 -48 41 -81 64 -115 80 -158 113 -186 141 -15 15 -34
27 -41 27 -8 0 -20 7 -27 15 -13 15 -2 21 16 8 5 -5 -6 6 -26 22 -70 60 -135
138 -204 244 -69 107 -90 170 -77 232 0 4 20 19 44 35 58 39 155 120 195 163
22 24 29 28 22 14 -10 -21 -8 -23 15 -23 18 0 31 9 43 29 20 35 34 31 63 -17z
m1399 18 c-8 -5 -19 -10 -25 -10 -5 0 -3 5 5 10 8 5 20 10 25 10 6 0 3 -5 -5
-10z m-392 -17 c-10 -2 -26 -2 -35 0 -10 3 -2 5 17 5 19 0 27 -2 18 -5z m1463
-85 c6 -11 6 -18 0 -18 -10 0 -71 88 -71 103 0 10 56 -56 71 -85z m44 -70 c10
-17 33 -48 52 -69 25 -28 30 -38 19 -42 -17 -7 -22 -2 -74 85 -23 37 -36 65
-29 62 7 -2 21 -19 32 -36z m75 -50 l23 -33 -26 24 c-15 14 -27 28 -27 33 0
14 5 9 30 -24z m-474 4 c-3 -5 -16 -12 -28 -15 l-23 -6 24 20 c23 19 39 20 27
1z m249 -52 c-27 -12 -43 -12 -25 0 8 5 22 9 30 9 10 0 8 -3 -5 -9z m-340 -23
c-30 -23 -105 -59 -105 -52 0 3 22 16 49 30 27 13 52 29 56 35 3 5 12 10 18
10 7 0 -1 -11 -18 -23z m-825 -82 c0 -47 -4 -85 -9 -85 -11 0 -20 83 -14 131
10 69 23 42 23 -46z m1170 81 c0 -2 -9 -6 -20 -9 -11 -3 -18 -1 -14 4 5 9 34
13 34 5z m-75 -25 c-3 -6 -11 -11 -17 -11 -6 0 -6 6 2 15 14 17 26 13 15 -4z
m356 -20 c6 -17 16 -28 22 -25 20 7 39 -33 27 -56 -16 -30 -29 -24 -24 10 4
22 1 30 -10 30 -21 0 -56 39 -49 56 8 23 23 16 34 -15z m-785 -16 c-11 -8 -22
-12 -25 -9 -6 6 19 24 34 24 6 -1 1 -7 -9 -15z m-146 -10 c-14 -8 -29 -14 -35
-14 -5 0 1 6 15 14 14 8 30 14 35 14 6 0 -1 -6 -15 -14z m588 -11 c0 -15 -4
-22 -10 -16 -5 5 -6 16 -2 25 9 23 12 21 12 -9z m-683 -29 c-49 -21 -81 -29
-70 -17 10 10 69 30 90 30 6 0 -3 -5 -20 -13z m135 -10 c-34 -19 -150 -58
-156 -52 -3 3 26 14 63 26 37 11 75 25 83 31 8 5 20 10 25 9 6 0 -1 -6 -15
-14z m451 -8 c-10 -9 -11 -8 -5 6 3 10 9 15 12 12 3 -3 0 -11 -7 -18z m109
-18 c0 -24 -23 -21 -28 4 -2 10 3 17 12 17 10 0 16 -9 16 -21z m459 -10 c24
-17 32 -19 50 -10 39 21 49 -12 15 -46 -7 -7 -22 -28 -34 -48 -12 -19 -26 -35
-31 -35 -15 0 -10 17 6 24 10 3 15 17 14 38 -1 24 -3 27 -6 11 -5 -25 -21 -31
-28 -10 -19 53 -28 70 -32 60 -3 -7 -9 -13 -14 -13 -5 0 -2 11 7 25 20 30 18
30 53 4z m-1476 -6 c-13 -2 -33 -2 -45 0 -13 2 -3 4 22 4 25 0 35 -2 23 -4z
m-103 -23 c0 -5 -2 -10 -4 -10 -3 0 -8 5 -11 10 -3 6 -1 10 4 10 6 0 11 -4 11
-10z m535 -20 c-33 -15 -71 -30 -85 -34 -14 -3 -5 3 20 14 25 11 59 26 75 34
17 8 35 15 40 15 6 -1 -17 -13 -50 -29z m725 -2 c0 -6 -7 -5 -15 2 -8 7 -15
17 -15 22 0 6 7 5 15 -2 8 -7 15 -17 15 -22z m-1303 16 c-3 -3 -12 -4 -19 -1
-8 3 -5 6 6 6 11 1 17 -2 13 -5z m49 -38 c15 -31 4 -36 -62 -28 l-49 6 40 6
c30 4 40 9 39 23 -2 25 19 21 32 -7z m277 17 c-7 -2 -19 -2 -25 0 -7 3 -2 5
12 5 14 0 19 -2 13 -5z m701 -107 c-4 -31 -11 -56 -16 -56 -6 0 -7 7 -4 16 3
9 6 41 6 72 1 42 3 53 10 40 6 -9 7 -41 4 -72z m149 58 c11 -14 17 -28 14 -30
-3 -3 -15 9 -27 25 -12 17 -18 31 -13 31 4 0 16 -12 26 -26z m-568 6 c14 -5 8
-8 -25 -7 -56 0 -100 -22 -153 -76 l-40 -42 34 44 c21 27 51 52 83 67 54 25
69 27 101 14z m71 -41 c3 -6 -5 -3 -20 6 -14 10 -26 19 -26 22 0 7 39 -17 46
-28z m33 -89 c0 -23 -1 -23 -9 -5 -5 11 -9 31 -9 45 0 23 1 23 9 5 5 -11 9
-31 9 -45z m616 1 c-6 -6 -17 4 -28 27 l-18 37 27 -27 c18 -18 25 -31 19 -37z
m-1275 3 c0 -40 -2 -45 -15 -34 -12 10 -15 9 -15 -6 -1 -16 -2 -16 -14 4 -7
13 -10 36 -8 53 3 23 9 29 28 29 22 0 24 -4 24 -46z m885 8 c-15 -16 -16 -15
-4 12 7 15 15 23 17 16 3 -7 -3 -19 -13 -28z m-565 3 c0 -2 -9 -22 -20 -46
-11 -24 -20 -57 -19 -74 0 -25 3 -21 18 23 10 29 24 59 31 65 8 8 7 0 -3 -24
-8 -20 -18 -55 -22 -78 -6 -38 -5 -41 15 -41 13 0 20 5 17 13 -2 6 -10 11 -16
10 -14 -4 -14 -1 5 47 9 23 21 39 27 37 6 -2 17 -22 25 -45 7 -23 17 -42 21
-42 4 0 17 21 29 46 16 32 28 44 40 42 17 -3 32 -58 15 -58 -4 0 -9 -18 -11
-40 -1 -22 1 -39 5 -38 5 1 20 -2 36 -7 19 -5 25 -11 18 -19 -9 -11 -25 -76
-19 -76 2 0 28 9 58 21 89 34 90 34 90 10 0 -11 3 -21 7 -21 17 0 53 46 53 67
0 24 72 102 78 84 2 -5 12 -7 22 -4 11 3 20 0 20 -6 0 -6 4 -11 8 -11 5 0 19
35 32 78 25 79 39 100 52 79 10 -16 -1 -57 -24 -86 -14 -19 -16 -26 -6 -32 9
-6 19 2 31 24 21 37 20 32 -8 -42 -25 -67 -96 -145 -124 -136 -11 3 -22 1 -26
-4 -4 -7 1 -9 12 -5 16 5 16 4 -1 -10 -10 -8 -22 -13 -27 -11 -11 8 -101 -80
-92 -90 5 -4 2 -5 -5 -1 -9 5 -17 -2 -25 -23 -6 -17 -17 -31 -24 -31 -7 0 -13
-4 -13 -10 0 -5 -11 -10 -25 -10 -14 0 -34 -9 -45 -20 -11 -11 -24 -20 -30
-20 -5 0 -10 -3 -10 -7 0 -5 -17 -8 -39 -8 -41 -1 -78 -11 -211 -56 -75 -26
-240 -62 -248 -54 -9 8 35 35 82 50 56 18 127 70 147 108 7 11 -12 -2 -40 -30
-41 -41 -63 -54 -102 -62 -28 -6 -60 -16 -72 -23 -20 -10 -21 -10 -8 5 7 10 9
17 4 17 -6 0 -9 53 -8 133 3 155 4 167 21 160 7 -2 22 0 33 7 17 8 21 20 21
59 0 46 2 50 74 119 74 72 93 85 82 56 -8 -21 4 -94 16 -94 5 0 6 19 2 46 -6
41 -4 48 21 74 15 16 34 26 41 23 8 -3 14 -6 14 -8z m560 -33 c0 -5 -6 -17
-14 -28 -19 -25 -31 -12 -14 15 13 21 28 28 28 13z m340 -7 c7 -9 8 -15 2 -15
-5 0 -12 7 -16 15 -3 8 -4 15 -2 15 2 0 9 -7 16 -15z m85 -15 c-15 -16 -15
-22 -5 -35 7 -8 8 -15 2 -15 -5 0 -15 7 -22 15 -10 13 -10 19 5 35 10 11 23
20 28 20 6 0 2 -9 -8 -20z m75 -25 c0 -14 5 -25 11 -25 5 0 7 -4 4 -10 -13
-21 -30 -8 -32 25 -2 19 2 35 7 35 6 0 10 -11 10 -25z m-741 -19 c-12 -25 -80
-66 -110 -66 -8 0 -21 5 -29 10 -11 7 -7 8 15 4 34 -6 111 37 121 69 3 10 8
16 10 14 3 -2 -1 -16 -7 -31z m210 -28 c1 -11 -11 -10 -28 1 -13 8 -13 12 -1
26 13 16 15 16 21 -2 4 -10 8 -21 8 -25z m-839 -46 c0 -25 -4 -41 -9 -37 -6 3
-10 29 -9 57 0 34 3 46 9 37 5 -8 9 -33 9 -57z m1340 26 c0 -3 -3 -13 -6 -22
-8 -21 -34 -21 -34 0 0 8 5 12 11 8 8 -5 8 -1 0 14 -16 30 -14 34 9 20 11 -7
20 -16 20 -20z"/>
<path d="M3400 6923 c-8 -2 -21 -7 -29 -9 -11 -4 -10 -8 5 -19 26 -19 29 -19
48 10 17 25 11 30 -24 18z"/>
<path d="M3506 6621 c-19 -30 9 -110 38 -111 5 0 -1 11 -13 24 -18 19 -22 33
-19 60 4 37 3 42 -6 27z"/>
<path d="M4640 6592 c0 -16 -10 -42 -22 -58 l-22 -29 32 29 c31 29 42 69 22
81 -6 4 -10 -6 -10 -23z"/>
<path d="M4313 6543 c9 -2 25 -2 35 0 9 3 1 5 -18 5 -19 0 -27 -2 -17 -5z"/>
<path d="M3808 6533 c6 -2 18 -2 25 0 6 3 1 5 -13 5 -14 0 -19 -2 -12 -5z"/>
<path d="M4285 6519 c-17 -4 -46 -25 -65 -46 l-35 -38 35 32 c21 19 57 38 90
46 30 9 44 15 30 15 -14 0 -39 -4 -55 -9z"/>
<path d="M3832 6506 c50 -9 76 -20 100 -41 l33 -30 -25 29 c-32 37 -78 56
-132 55 -39 -1 -36 -2 24 -13z"/>
<path d="M4378 6513 c6 -2 18 -2 25 0 6 3 1 5 -13 5 -14 0 -19 -2 -12 -5z"/>
<path d="M5120 6512 c0 -4 7 -18 16 -31 12 -16 23 -22 40 -18 14 2 27 0 30 -4
9 -16 24 -10 24 9 0 15 -6 18 -28 14 -19 -2 -33 3 -46 17 -19 21 -36 27 -36
13z"/>
<path d="M3738 6503 c7 -3 16 -2 19 1 4 3 -2 6 -13 5 -11 0 -14 -3 -6 -6z"/>
<path d="M4501 6506 c2 -2 22 -6 44 -9 27 -4 35 -3 25 3 -14 9 -79 15 -69 6z"/>
<path d="M4000 6420 c6 -11 13 -20 16 -20 2 0 0 9 -6 20 -6 11 -13 20 -16 20
-2 0 0 -9 6 -20z"/>
<path d="M4142 6428 c-17 -21 -45 -98 -38 -105 3 -4 6 -1 6 6 0 7 11 35 25 62
24 49 26 60 7 37z"/>
<path d="M3371 6340 c-1 -45 3 -56 29 -82 23 -22 35 -28 52 -22 17 5 27 0 45
-22 17 -21 23 -24 23 -12 0 22 -27 48 -51 48 -13 0 -19 7 -19 23 0 16 -3 18
-9 9 -5 -8 -17 -12 -27 -10 -15 2 -20 14 -22 53 -4 68 -19 79 -21 15z"/>
<path d="M4021 6390 c-1 -3 8 -27 19 -55 10 -27 19 -43 19 -35 0 14 -36 101
-38 90z"/>
<path d="M4777 6384 c-3 -4 -3 -19 0 -35 3 -15 2 -40 -1 -55 -6 -22 -11 -25
-31 -20 -18 5 -25 2 -25 -9 0 -9 -9 -15 -25 -15 -25 0 -50 -31 -42 -53 3 -7
10 0 16 15 10 26 14 27 60 25 28 -2 48 0 46 4 -3 4 2 20 10 35 24 47 18 134
-8 108z"/>
<path d="M4136 6355 c-3 -9 -6 -24 -5 -33 0 -9 5 -4 10 12 9 32 6 48 -5 21z"/>
<path d="M3421 6333 c7 -12 15 -20 18 -17 3 2 -3 12 -13 22 -17 16 -18 16 -5
-5z"/>
<path d="M3686 6311 c-8 -13 25 -23 38 -12 19 16 50 2 74 -33 12 -18 22 -35
22 -39 0 -17 -33 -5 -55 21 -13 15 -27 23 -32 19 -10 -11 56 -67 79 -67 38 0
12 82 -33 106 -31 16 -85 19 -93 5z"/>
<path d="M4393 6310 c-44 -18 -72 -110 -33 -110 24 0 88 55 77 66 -4 4 -20 -5
-36 -20 -38 -36 -58 -26 -34 16 21 36 59 54 79 37 16 -13 48 -4 39 11 -7 12
-62 12 -92 0z"/>
<path d="M3248 6293 c7 -3 16 -2 19 1 4 3 -2 6 -13 5 -11 0 -14 -3 -6 -6z"/>
<path d="M4894 6288 c-4 -7 -3 -8 4 -4 19 11 14 -11 -10 -49 -22 -34 -58 -48
-58 -22 0 8 -4 7 -10 -3 -5 -8 -10 -28 -10 -45 1 -24 3 -27 10 -14 5 9 21 20
35 23 19 5 33 21 50 58 23 49 24 68 5 68 -5 0 -12 -5 -16 -12z"/>
<path d="M3251 6273 c3 -26 49 -89 77 -105 32 -18 32 -17 32 5 0 29 -15 53
-24 38 -14 -22 -36 -10 -56 29 -19 37 -31 51 -29 33z"/>
<path d="M4855 6260 c-3 -5 -2 -10 4 -10 5 0 13 5 16 10 3 6 2 10 -4 10 -5 0
-13 -4 -16 -10z"/>
<path d="M4032 6220 c0 -19 2 -27 5 -17 2 9 2 25 0 35 -3 9 -5 1 -5 -18z"/>
<path d="M3600 6230 c2 -16 99 -80 122 -80 36 0 42 -13 23 -50 -21 -40 -38
-46 -80 -26 -34 17 -47 36 -23 36 6 0 9 2 6 5 -2 3 -20 0 -38 -7 l-34 -11 70
-33 c82 -39 84 -40 84 -14 0 11 7 20 15 20 8 0 15 7 15 15 0 29 24 66 47 71
49 13 145 -62 159 -124 3 -15 13 -42 21 -60 8 -18 16 -44 17 -57 1 -12 15 -37
29 -55 15 -17 27 -38 27 -46 0 -26 33 -14 67 24 38 42 44 65 11 36 l-23 -19
19 22 c10 12 23 21 30 20 6 -1 11 14 12 34 1 20 5 42 10 50 5 8 7 22 5 33 -1
11 2 16 8 12 7 -4 11 1 11 13 0 27 54 87 96 107 64 31 93 6 113 -96 9 -45 9
-45 11 -10 2 25 4 29 7 13 2 -13 8 -23 13 -23 11 0 150 69 150 75 0 2 -8 3
-17 3 -10 -1 -29 2 -43 5 -14 4 -19 4 -12 1 21 -10 14 -22 -23 -40 -45 -21
-59 -15 -86 38 -26 51 -34 58 -74 58 -33 0 -67 -20 -111 -66 -27 -27 -31 -29
-44 -15 -8 9 -14 18 -13 22 1 3 -4 6 -12 6 -11 0 -10 -7 1 -41 17 -48 7 -84
-37 -128 -35 -35 -63 -35 -98 0 -31 30 -50 100 -31 112 6 4 11 11 11 16 -2 19
10 41 22 42 6 1 32 4 55 6 46 5 66 16 45 23 -7 3 -14 21 -14 41 -1 36 -2 36
-8 8 -8 -38 -25 -40 -29 -3 -2 15 -8 27 -13 27 -7 0 -8 -12 -4 -30 5 -23 3
-30 -8 -30 -9 0 -18 6 -21 13 -3 6 -5 -2 -3 -19 2 -23 0 -31 -10 -27 -7 3 -13
0 -13 -7 0 -6 -4 -8 -10 -5 -5 3 -10 0 -10 -8 0 -17 -27 -30 -35 -17 -3 4 0
10 6 12 6 2 0 12 -13 23 -18 16 -20 16 -9 2 20 -25 3 -36 -17 -11 -41 50 -116
70 -142 39 -17 -21 -24 -12 -10 14 8 16 8 21 -1 21 -7 0 -22 8 -33 18 -21 17
-21 17 -3 -4 23 -28 22 -34 -12 -34 -24 0 -43 10 -91 47 -2 2 2 8 9 13 10 5 6
8 -12 7 -15 -1 -27 -4 -27 -7z m540 -310 c0 -5 -5 -10 -11 -10 -5 0 -7 5 -4
10 3 6 8 10 11 10 2 0 4 -4 4 -10z m-86 -59 c-2 -3 -12 3 -22 13 -16 17 -16
18 5 5 12 -7 20 -15 17 -18z"/>
<path d="M4520 6205 c-48 -37 -69 -42 -100 -23 -24 15 -37 4 -20 -17 22 -26
69 -18 121 22 27 20 49 41 49 45 0 11 1 11 -50 -27z"/>
<path d="M3390 6205 c-7 -9 -11 -17 -9 -20 3 -2 10 5 17 15 14 24 10 26 -8 5z"/>
<path d="M3840 6186 c0 -2 11 -6 25 -8 13 -3 22 -1 19 3 -5 9 -44 13 -44 5z"/>
<path d="M4286 6181 c-4 -5 3 -7 14 -4 23 6 26 13 6 13 -8 0 -17 -4 -20 -9z"/>
<path d="M5310 6182 c0 -5 7 -13 16 -16 10 -4 14 -1 12 6 -5 15 -28 23 -28 10z"/>
<path d="M4219 6123 c-13 -16 -12 -17 4 -4 9 7 17 15 17 17 0 8 -8 3 -21 -13z"/>
<path d="M3328 6123 c7 -3 16 -2 19 1 4 3 -2 6 -13 5 -11 0 -14 -3 -6 -6z"/>
<path d="M4488 6123 c7 -3 16 -2 19 1 4 3 -2 6 -13 5 -11 0 -14 -3 -6 -6z"/>
<path d="M4869 6113 l54 -18 -27 -13 c-33 -15 -63 -16 -71 -2 -4 6 -11 8 -16
4 -15 -9 20 -44 44 -44 30 0 97 42 97 60 0 12 -9 17 -32 17 -18 0 -49 3 -68 7
-19 3 -11 -2 19 -11z"/>
<path d="M3220 6106 c0 -18 47 -52 83 -61 30 -8 57 8 57 33 0 12 -3 13 -12 4
-16 -16 -47 -15 -78 3 -21 12 -22 14 -6 15 25 0 18 5 -16 14 -21 5 -28 3 -28
-8z"/>
<path d="M5280 6015 c0 -21 5 -25 30 -25 38 0 38 10 0 32 -30 17 -30 17 -30
-7z"/>
<path d="M3721 6004 c0 -11 3 -14 6 -6 3 7 2 16 -1 19 -3 4 -6 -2 -5 -13z"/>
<path d="M3270 5970 c0 -13 9 -22 28 -26 15 -3 39 -10 54 -16 22 -8 33 -7 54
7 24 16 27 16 45 -1 18 -16 18 -17 -16 -35 -19 -11 -42 -19 -50 -19 -20 0 -19
-16 1 -24 21 -8 24 -8 22 4 -5 19 47 43 76 36 39 -10 27 -29 -25 -42 -32 -9
-39 -14 -27 -19 10 -4 15 -13 12 -23 -5 -15 -3 -14 9 1 8 10 31 26 51 36 30
16 38 16 53 6 17 -13 17 -14 1 -20 -10 -4 -18 -11 -18 -16 0 -5 14 -2 31 6 40
21 65 14 47 -14 -7 -11 -21 -22 -33 -24 -19 -4 -19 -4 2 -6 12 0 28 6 37 14 8
8 19 15 25 15 13 0 108 -49 99 -51 -15 -3 -23 -6 -51 -17 -44 -18 -53 -14 -27
13 30 32 21 32 -16 0 -16 -14 -33 -25 -39 -25 -5 0 -3 -5 6 -10 20 -11 114 12
139 35 14 12 30 15 71 10 79 -9 37 14 -46 26 -35 5 -78 17 -96 28 -17 11 -37
17 -44 15 -7 -3 -15 2 -18 10 -4 9 -16 16 -27 16 -37 0 -96 42 -84 61 5 8 1 8
-13 0 -17 -8 -25 -5 -48 19 -19 20 -32 26 -40 20 -17 -14 -107 -4 -120 14 -16
22 -25 20 -25 -4z"/>
<path d="M3610 5981 c0 -5 9 -11 20 -14 24 -6 27 8 4 17 -21 8 -24 8 -24 -3z"/>
<path d="M4533 5983 c-7 -2 -13 -8 -13 -13 0 -10 38 -1 46 11 6 10 -13 11 -33
2z"/>
<path d="M3680 5976 c0 -2 14 -6 30 -8 17 -3 30 -1 30 4 0 4 -13 8 -30 8 -16
0 -30 -2 -30 -4z"/>
<path d="M4325 5970 c-3 -6 1 -7 9 -4 18 7 21 14 7 14 -6 0 -13 -4 -16 -10z"/>
<path d="M3574 5958 c-22 -10 -49 -47 -40 -55 3 -3 12 2 21 10 30 30 52 29 99
-5 l47 -32 25 27 c14 15 22 32 19 37 -9 15 -25 12 -25 -4 0 -27 -32 -26 -79 2
-35 22 -51 27 -67 20z"/>
<path d="M3816 5947 c2 -7 25 -25 50 -41 25 -16 52 -39 61 -53 9 -13 18 -21
21 -19 10 10 -60 85 -98 105 -22 12 -37 15 -34 8z"/>
<path d="M4070 5950 c0 -5 5 -10 11 -10 5 0 7 5 4 10 -3 6 -8 10 -11 10 -2 0
-4 -4 -4 -10z"/>
<path d="M4319 5940 c-20 -11 -49 -34 -64 -52 -15 -18 -31 -32 -34 -31 -9 3
-41 -29 -41 -40 0 -6 7 -2 15 9 11 14 14 15 15 4 0 -9 17 2 41 28 23 23 55 50
70 59 16 9 31 23 33 30 6 16 9 16 -35 -7z"/>
<path d="M3039 5881 c-17 -17 -29 -40 -29 -55 0 -31 -13 -33 -40 -6 -11 11
-20 16 -20 11 0 -5 21 -27 47 -49 43 -38 46 -43 35 -66 -9 -20 -9 -24 3 -20
22 9 26 33 10 64 -23 45 -19 90 12 122 36 37 20 36 -18 -1z"/>
<path d="M3750 5907 c0 -7 37 -47 44 -47 4 0 -1 11 -10 25 -14 21 -34 34 -34
22z"/>
<path d="M4382 5880 c-28 -37 -20 -39 13 -4 27 29 29 34 17 34 -5 0 -18 -13
-30 -30z"/>
<path d="M2940 5860 c0 -5 5 -10 11 -10 5 0 7 5 4 10 -3 6 -8 10 -11 10 -2 0
-4 -4 -4 -10z"/>
<path d="M5320 5850 c0 -5 5 -10 11 -10 5 0 7 5 4 10 -3 6 -8 10 -11 10 -2 0
-4 -4 -4 -10z"/>
<path d="M3790 5836 c0 -2 8 -10 18 -17 15 -13 16 -12 3 4 -13 16 -21 21 -21
13z"/>
<path d="M4351 5824 c-7 -8 -11 -17 -9 -20 3 -2 13 5 23 16 10 11 14 20 9 20
-5 -1 -15 -8 -23 -16z"/>
<path d="M4290 5794 c-16 -8 -19 -14 -9 -14 8 0 24 7 35 15 24 18 7 18 -26 -1z"/>
<path d="M3860 5790 c8 -5 22 -9 30 -9 10 0 8 3 -5 9 -27 12 -43 12 -25 0z"/>
<path d="M4650 5789 c0 -7 -10 -9 -25 -7 -13 3 -22 1 -19 -3 7 -12 51 -11 59
0 3 5 1 12 -5 16 -5 3 -10 1 -10 -6z"/>
<path d="M3421 5768 c-14 -35 -79 -107 -114 -125 -35 -18 -107 -19 -140 -2
-12 7 -41 27 -64 46 -49 39 -60 29 -12 -11 32 -27 28 -36 -5 -11 -11 8 -24 15
-30 15 -6 0 0 -7 12 -16 18 -13 21 -19 11 -30 -15 -19 -39 -18 -69 3 l-24 17
24 7 c23 7 23 7 3 8 -30 1 -39 -17 -17 -35 32 -24 63 -28 83 -10 14 13 22 14
49 4 40 -15 38 -40 -3 -49 -27 -6 -28 -7 -5 -8 30 -1 46 8 51 29 3 12 15 14
54 10 l50 -5 -69 -38 c-38 -21 -82 -41 -97 -44 -23 -4 -27 -8 -18 -19 8 -10 6
-22 -12 -50 l-22 -36 22 11 c12 7 24 25 28 42 4 23 10 28 24 24 11 -4 19 -2
19 3 0 6 6 12 13 15 11 4 12 -3 7 -34 -4 -21 -13 -46 -20 -54 -21 -26 -2 -30
24 -6 20 18 23 28 16 46 -10 25 -3 65 11 65 6 0 14 -10 19 -22 9 -20 9 -18 7
12 -1 27 2 35 16 38 17 3 18 -2 15 -47 -3 -28 -1 -51 2 -51 22 0 76 102 65
120 -11 18 -25 10 -25 -14 0 -13 -3 -31 -6 -40 -11 -28 -24 -17 -24 18 0 28 7
39 39 63 47 35 134 140 127 152 -4 5 -1 11 6 13 9 3 9 6 0 12 -8 4 -15 -1 -21
-16z"/>
<path d="M3507 5779 c7 -7 15 -10 18 -7 3 3 -2 9 -12 12 -14 6 -15 5 -6 -5z"/>
<path d="M3930 5770 c-23 -8 -22 -9 8 -7 20 1 37 -4 43 -13 8 -12 10 -11 7 5
-4 23 -22 27 -58 15z"/>
<path d="M2980 5747 c25 -7 47 -12 49 -10 9 7 -7 12 -49 18 l-45 5 45 -13z"/>
<path d="M2923 5733 c-23 -9 -14 -20 12 -15 14 2 22 8 19 13 -6 10 -12 10 -31
2z"/>
<path d="M5310 5730 c0 -5 5 -10 10 -10 6 0 10 5 10 10 0 6 -4 10 -10 10 -5 0
-10 -4 -10 -10z"/>
<path d="M4007 5706 c-4 -9 -2 -16 4 -16 7 0 9 -13 4 -36 -4 -23 -3 -34 4 -30
5 3 12 0 15 -6 3 -7 3 7 0 32 -8 57 -18 79 -27 56z"/>
<path d="M2960 5706 c0 -2 7 -7 16 -10 8 -3 12 -2 9 4 -6 10 -25 14 -25 6z"/>
<path d="M2635 5645 c4 -11 17 -50 29 -86 12 -36 29 -77 38 -90 15 -21 15 -17
-2 31 -29 86 -55 148 -64 157 -5 5 -6 -1 -1 -12z"/>
<path d="M2881 5614 c0 -19 9 -46 24 -69 15 -20 25 -38 23 -40 -2 -1 -13 -8
-25 -14 -13 -6 -23 -16 -23 -21 0 -10 57 17 66 32 4 6 0 16 -9 23 -10 7 -17
19 -17 28 0 9 -6 22 -14 30 -8 7 -16 25 -19 38 -4 20 -4 19 -6 -7z"/>
<path d="M3080 5600 c-8 -5 -12 -12 -9 -15 8 -8 39 5 39 16 0 11 -11 11 -30
-1z"/>
<path d="M4007 5604 c-4 -4 -7 -14 -7 -23 0 -11 3 -12 11 -4 6 6 10 16 7 23
-2 6 -7 8 -11 4z"/>
<path d="M2534 5571 c15 -28 69 -203 101 -326 12 -48 13 -49 15 -15 1 34 2 34
11 10 6 -14 8 -33 5 -42 -2 -10 1 -18 6 -18 25 0 -27 259 -57 289 -13 14 -15
13 -16 -4 0 -11 -13 14 -28 55 -16 41 -34 76 -40 78 -9 3 -8 -6 3 -27z m112
-271 c4 -34 4 -34 -10 7 -7 23 -16 54 -19 70 -5 24 -4 23 9 -7 9 -19 18 -51
20 -70z"/>
<path d="M4940 5575 c0 -8 61 -37 67 -31 3 2 -9 12 -26 20 -31 17 -41 19 -41
11z"/>
<path d="M2946 5545 c4 -8 12 -15 20 -15 20 0 17 7 -6 20 -16 9 -18 8 -14 -5z"/>
<path d="M3040 5507 c-14 -5 -34 -9 -45 -8 -12 1 -24 -7 -30 -21 -5 -13 -23
-29 -40 -38 -22 -10 -26 -15 -13 -18 22 -4 66 24 73 48 5 15 11 17 30 10 18
-7 27 -4 41 11 22 24 16 30 -16 16z"/>
<path d="M2997 5413 c-13 -13 -7 -21 13 -16 11 3 17 9 14 14 -6 11 -18 12 -27
2z"/>
<path d="M3747 5370 c-32 -33 -25 -40 12 -11 13 10 22 23 20 30 -2 6 -16 -2
-32 -19z"/>
<path d="M4811 5348 c1 -23 15 -52 21 -42 3 5 2 19 -3 32 -9 24 -19 30 -18 10z"/>
<path d="M3685 5330 c-16 -7 -17 -9 -3 -9 9 -1 20 4 23 9 7 11 7 11 -20 0z"/>
<path d="M4863 5302 c-27 -21 -17 -48 15 -38 22 7 36 32 26 47 -7 13 -16 11
-41 -9z"/>
<path d="M3535 5280 c-42 -15 -45 -19 -22 -19 26 -1 87 23 87 34 0 7 -8 5 -65
-15z"/>
<path d="M4970 5287 c0 -7 4 -18 9 -26 8 -12 11 -12 24 0 12 13 11 16 -9 26
-18 8 -24 8 -24 0z"/>
<path d="M3398 5233 c-29 -7 -21 -18 12 -17 17 0 36 6 42 12 9 9 6 12 -12 11
-14 -1 -33 -3 -42 -6z"/>
<path d="M3188 5173 c7 -3 16 -2 19 1 4 3 -2 6 -13 5 -11 0 -14 -3 -6 -6z"/>
<path d="M3090 5150 c-8 -5 -10 -10 -5 -10 6 0 17 5 25 10 8 5 11 10 5 10 -5
0 -17 -5 -25 -10z"/>
<path d="M2470 5971 c0 -6 5 -13 10 -16 6 -3 10 1 10 9 0 9 -4 16 -10 16 -5 0
-10 -4 -10 -9z"/>
<path d="M5800 5281 c0 -5 5 -13 10 -16 6 -3 10 -2 10 4 0 5 -4 13 -10 16 -5
3 -10 2 -10 -4z"/>
<path d="M2212 5170 c0 -19 2 -27 5 -17 2 9 2 25 0 35 -3 9 -5 1 -5 -18z"/>
<path d="M5691 4806 c-9 -11 -9 -16 1 -22 7 -4 10 -4 6 1 -4 4 -3 14 3 22 6 7
9 13 6 13 -2 0 -10 -6 -16 -14z"/>
<path d="M5781 4784 c0 -11 3 -14 6 -6 3 7 2 16 -1 19 -3 4 -6 -2 -5 -13z"/>
<path d="M5752 4705 c-7 -14 -12 -31 -12 -38 1 -7 7 3 16 22 17 39 13 54 -4
16z"/>
<path d="M5724 4627 c-1 -30 -1 -30 9 -9 6 14 7 26 1 32 -5 5 -9 -4 -10 -23z"/>
<path d="M5665 4571 c4 -8 2 -17 -6 -22 -9 -6 -10 -9 -2 -9 19 0 27 21 13 33
-10 9 -11 9 -5 -2z"/>
<path d="M5576 4545 c-9 -26 -7 -32 5 -12 6 10 9 21 6 23 -2 3 -7 -2 -11 -11z"/>
<path d="M5561 4484 c0 -11 3 -14 6 -6 3 7 2 16 -1 19 -3 4 -6 -2 -5 -13z"/>
<path d="M2631 4475 c1 -19 18 -51 18 -35 0 8 -4 22 -9 30 -5 8 -9 11 -9 5z"/>
<path d="M5650 4430 c-6 -11 -8 -20 -6 -20 3 0 10 9 16 20 6 11 8 20 6 20 -3
0 -10 -9 -16 -20z"/>
<path d="M5531 4407 c-13 -21 -12 -21 5 -5 10 10 16 20 13 22 -3 3 -11 -5 -18
-17z"/>
<path d="M2655 4395 c4 -16 8 -50 10 -75 11 -118 18 -151 57 -257 29 -79 46
-109 35 -60 -25 106 -59 232 -67 248 -6 10 -7 19 -2 19 17 0 88 -198 160 -443
15 -53 31 -95 34 -91 4 3 3 16 -2 27 -5 12 -25 80 -45 151 -48 175 -202 586
-180 481z"/>
<path d="M5510 4359 c-7 -11 -10 -23 -7 -25 2 -2 9 7 15 21 14 30 7 33 -8 4z"/>
<path d="M5600 4305 c-7 -9 -8 -15 -2 -15 5 0 12 7 16 15 3 8 4 15 2 15 -2 0
-9 -7 -16 -15z"/>
<path d="M5552 4180 c0 -14 2 -19 5 -12 2 6 2 18 0 25 -3 6 -5 1 -5 -13z"/>
<path d="M5432 4161 c4 -13 18 -16 19 -4 0 4 -5 9 -11 12 -7 2 -11 -2 -8 -8z"/>
<path d="M5390 4055 c0 -8 2 -15 4 -15 2 0 6 7 10 15 3 8 1 15 -4 15 -6 0 -10
-7 -10 -15z"/>
<path d="M3040 4030 c0 -5 5 -10 11 -10 5 0 7 5 4 10 -3 6 -8 10 -11 10 -2 0
-4 -4 -4 -10z"/>
<path d="M3100 3980 c20 -13 33 -13 25 0 -3 6 -14 10 -23 10 -15 0 -15 -2 -2
-10z"/>
<path d="M3168 3958 c5 -5 16 -8 23 -6 8 3 3 7 -10 11 -17 4 -21 3 -13 -5z"/>
<path d="M5140 3959 c0 -5 5 -7 10 -4 6 3 10 8 10 11 0 2 -4 4 -10 4 -5 0 -10
-5 -10 -11z"/>
<path d="M5330 3911 c0 -6 4 -13 10 -16 6 -3 7 1 4 9 -7 18 -14 21 -14 7z"/>
<path d="M5340 3859 c0 -13 28 -18 33 -6 3 7 -3 13 -14 13 -11 0 -19 -3 -19
-7z"/>
<path d="M5296 3813 c-6 -14 -5 -15 5 -6 7 7 10 15 7 18 -3 3 -9 -2 -12 -12z"/>
<path d="M5350 3809 c-6 -11 -10 -25 -8 -30 2 -5 8 4 15 21 13 34 9 40 -7 9z"/>
<path d="M5280 3769 c0 -5 5 -7 10 -4 6 3 10 8 10 11 0 2 -4 4 -10 4 -5 0 -10
-5 -10 -11z"/>
<path d="M3340 3755 c0 -21 145 -87 183 -83 19 2 33 9 35 19 2 12 -21 23 -95
47 -110 36 -123 38 -123 17z"/>
<path d="M5316 3762 c-2 -4 -1 -14 4 -22 7 -11 9 -9 7 8 -1 24 -3 26 -11 14z"/>
<path d="M5381 3724 c-6 -15 -9 -29 -7 -32 3 -2 10 8 16 23 14 36 7 43 -9 9z"/>
<path d="M5260 3720 c0 -5 5 -10 11 -10 5 0 7 5 4 10 -3 6 -8 10 -11 10 -2 0
-4 -4 -4 -10z"/>
<path d="M5258 3693 c7 -3 16 -2 19 1 4 3 -2 6 -13 5 -11 0 -14 -3 -6 -6z"/>
<path d="M5360 3669 c0 -5 5 -7 10 -4 6 3 10 8 10 11 0 2 -4 4 -10 4 -5 0 -10
-5 -10 -11z"/>
<path d="M3687 3663 c-13 -12 -7 -20 38 -42 28 -14 64 -22 97 -23 29 0 68 -7
86 -15 36 -17 62 -6 62 27 0 22 -19 30 -73 30 -23 0 -67 7 -97 15 -59 16 -103
19 -113 8z"/>
<path d="M5236 3643 c-3 -10 -10 -49 -17 -88 -7 -40 -19 -75 -28 -82 -15 -12
-14 -13 1 -7 13 4 15 1 11 -15 -6 -25 13 -28 21 -3 8 29 27 204 22 209 -2 3
-7 -4 -10 -14z"/>
<path d="M5277 3653 c-4 -3 -7 -13 -7 -22 1 -13 3 -13 11 2 11 19 8 33 -4 20z"/>
<path d="M5276 3503 c-6 -14 -5 -15 5 -6 7 7 10 15 7 18 -3 3 -9 -2 -12 -12z"/>
<path d="M3077 3493 c-4 -3 -7 -18 -7 -32 0 -20 -2 -23 -10 -11 -5 8 -12 12
-15 8 -3 -3 3 -21 14 -39 12 -19 21 -48 21 -64 0 -60 202 -226 274 -225 16 1
11 7 -22 27 -40 24 -42 27 -27 43 14 16 13 20 -15 50 -17 18 -29 34 -28 36 2
1 36 -13 77 -32 58 -27 82 -33 108 -28 29 5 40 2 66 -22 18 -16 48 -38 67 -48
55 -29 101 -77 94 -98 -7 -22 39 -70 60 -62 9 3 17 -2 20 -14 12 -35 76 -70
143 -78 46 -5 60 -10 56 -20 -6 -17 40 -36 64 -27 16 6 16 4 -1 -15 -12 -14
-31 -22 -52 -22 -39 0 -64 -9 -64 -22 0 -7 21 -9 55 -6 43 4 62 11 84 32 25
24 27 32 23 76 -3 34 -1 50 7 50 8 0 10 11 5 38 -8 41 -12 68 -13 94 -1 9 -9
17 -18 17 -46 0 -191 41 -283 80 -14 5 -67 26 -118 46 -51 20 -127 57 -170 82
-167 99 -304 173 -322 173 -10 0 -22 -4 -25 -10 -10 -17 -25 -11 -25 10 0 20
-11 26 -23 13z m198 -123 c3 -6 -1 -7 -9 -4 -18 7 -21 14 -7 14 6 0 13 -4 16
-10z m85 -43 c13 -5 13 -6 -1 -6 -8 -1 -24 6 -35 15 -19 15 -19 15 1 6 11 -5
27 -12 35 -15z"/>
<path d="M3392 3399 c2 -13 25 -32 66 -55 51 -28 69 -34 97 -28 49 9 48 39 -2
49 -20 4 -58 18 -85 31 -59 30 -80 31 -76 3z"/>
<path d="M2990 3393 c0 -4 5 -15 10 -23 8 -13 10 -13 10 2 0 9 -4 20 -10 23
-5 3 -10 3 -10 -2z"/>
<path d="M5170 3330 c-6 -11 -8 -20 -6 -20 3 0 10 9 16 20 6 11 8 20 6 20 -3
0 -10 -9 -16 -20z"/>
<path d="M5085 3270 c-3 -6 1 -7 9 -4 18 7 21 14 7 14 -6 0 -13 -4 -16 -10z"/>
<path d="M3700 3261 c0 -41 103 -91 188 -91 62 0 72 22 20 44 -97 42 -208 67
-208 47z"/>
<path d="M4960 3225 c-6 -8 -10 -19 -8 -24 1 -6 8 1 15 14 13 28 11 31 -7 10z"/>
<path d="M5008 3233 c7 -3 16 -2 19 1 4 3 -2 6 -13 5 -11 0 -14 -3 -6 -6z"/>
<path d="M4994 3192 c3 -5 0 -13 -6 -15 -9 -4 -10 -6 -1 -6 17 -1 25 16 12 25
-7 4 -9 3 -5 -4z"/>
<path d="M4854 3115 c-9 -14 -21 -22 -27 -18 -5 3 -7 1 -3 -5 7 -12 -49 -56
-62 -48 -4 2 -14 1 -22 -5 -11 -6 -11 -9 -2 -10 6 -1 18 -2 25 -3 6 -1 19 1
28 6 23 10 104 108 90 108 -6 0 -18 -11 -27 -25z"/>
<path d="M4850 3055 c-8 -9 -8 -15 -2 -15 12 0 26 19 19 26 -2 2 -10 -2 -17
-11z"/>
<path d="M4685 3000 c-3 -5 -1 -10 4 -10 6 0 11 5 11 10 0 6 -2 10 -4 10 -3 0
-8 -4 -11 -10z"/>
<path d="M4705 2967 c-50 -39 -104 -67 -118 -61 -18 7 -42 -22 -27 -31 21 -13
64 6 127 57 35 27 63 52 63 54 0 9 -17 2 -45 -19z"/>
<path d="M4417 2964 c-4 -4 -7 -14 -7 -23 0 -11 3 -12 11 -4 6 6 10 16 7 23
-2 6 -7 8 -11 4z"/>
<path d="M4605 2930 c-3 -5 -2 -10 4 -10 5 0 13 5 16 10 3 6 2 10 -4 10 -5 0
-13 -4 -16 -10z"/>
<path d="M4235 2860 c3 -5 10 -10 16 -10 5 0 9 5 9 10 0 6 -7 10 -16 10 -8 0
-12 -4 -9 -10z"/>
<path d="M5661 5080 c14 -31 19 -36 19 -24 0 6 -7 19 -16 30 -14 18 -14 18 -3
-6z"/>
<path d="M5145 5030 c-3 -5 1 -10 9 -10 9 0 16 5 16 10 0 6 -4 10 -9 10 -6 0
-13 -4 -16 -10z"/>
<path d="M5580 5020 c-9 -6 -10 -10 -3 -10 6 0 15 5 18 10 8 12 4 12 -15 0z"/>
<path d="M5545 5000 c-3 -5 -1 -10 4 -10 6 0 11 5 11 10 0 6 -2 10 -4 10 -3 0
-8 -4 -11 -10z"/>
<path d="M5570 4950 c0 -5 5 -10 11 -10 5 0 7 5 4 10 -3 6 -8 10 -11 10 -2 0
-4 -4 -4 -10z"/>
<path d="M5621 4944 c0 -11 3 -14 6 -6 3 7 2 16 -1 19 -3 4 -6 -2 -5 -13z"/>
<path d="M5595 4869 c-4 -6 -5 -12 -2 -15 2 -3 7 2 10 11 7 17 1 20 -8 4z"/>
<path d="M3250 4315 c-10 -12 -7 -20 20 -45 18 -17 44 -32 59 -35 76 -13 128
-24 142 -30 10 -3 20 -2 23 3 19 31 -39 68 -161 102 -37 11 -69 20 -69 20 -1
0 -7 -7 -14 -15z"/>
<path d="M3635 4201 c3 -43 36 -56 162 -65 23 -2 55 -9 72 -16 30 -12 61 -8
61 7 0 16 -42 34 -150 63 -131 36 -147 37 -145 11z"/>
<path d="M5277 4078 c-10 -21 -17 -48 -16 -60 0 -17 5 -12 20 21 11 25 18 52
16 60 -3 10 -10 3 -20 -21z"/>
<path d="M3299 2410 c-5 -35 -9 -120 -5 -120 11 0 26 104 16 114 -5 5 -10 8
-11 6z"/>
<path d="M5431 2574 c0 -11 3 -14 6 -6 3 7 2 16 -1 19 -3 4 -6 -2 -5 -13z"/>
<path d="M5441 2545 c-1 -12 25 -42 63 -75 16 -14 26 -18 21 -10 -15 29 -38
50 -47 44 -5 -3 -6 7 -3 23 4 21 3 23 -3 8 -9 -19 -9 -19 -20 0 -6 11 -11 16
-11 10z"/>
<path d="M2858 2363 c6 -2 18 -2 25 0 6 3 1 5 -13 5 -14 0 -19 -2 -12 -5z"/>
<path d="M2758 2339 c-21 -10 -42 -28 -48 -39 -14 -26 -5 -25 20 0 12 12 24
19 29 16 4 -3 27 1 52 8 24 7 60 12 79 10 35 -4 35 -4 6 6 -28 9 -76 3 -118
-15 -28 -11 -21 3 10 19 15 8 23 15 17 15 -5 0 -27 -9 -47 -20z"/>
<path d="M2936 2335 c3 -8 21 -23 40 -34 19 -11 40 -33 46 -48 7 -15 18 -34
25 -41 18 -19 35 -88 39 -161 5 -82 14 -92 14 -15 0 58 -16 131 -40 189 -7 17
-13 33 -12 37 2 9 -96 88 -109 88 -4 0 -6 -7 -3 -15z"/>
<path d="M2816 2198 c-45 -10 -81 -37 -67 -51 5 -5 21 -2 39 7 40 21 64 20
112 -3 22 -11 40 -17 40 -15 0 10 -55 38 -88 45 -32 7 -30 8 16 5 29 -2 51 -1
49 1 -13 12 -68 18 -101 11z m-32 -33 c-10 -8 -23 -14 -29 -14 -5 0 -1 6 9 14
11 8 24 15 30 15 5 0 1 -7 -10 -15z"/>
<path d="M2930 2177 c0 -3 16 -23 35 -44 19 -21 40 -51 46 -68 22 -59 29 -72
22 -40 -9 45 -38 97 -72 129 -17 17 -31 27 -31 23z"/>
<path d="M2696 2083 c-2 -10 -8 -29 -11 -43 -5 -17 -4 -22 3 -15 11 11 27 75
18 75 -2 0 -7 -8 -10 -17z"/>
<path d="M2841 2035 c9 -11 19 -28 22 -37 8 -22 -27 -65 -56 -71 -14 -3 -12
-4 6 -2 17 1 24 -2 19 -7 -15 -15 -67 -5 -67 12 0 8 -10 16 -22 18 -13 2 -27
15 -35 32 -7 16 -16 26 -20 24 -15 -10 22 -62 59 -84 45 -26 96 -22 127 11 17
17 18 21 4 16 -14 -5 -15 -2 -6 25 10 27 8 33 -18 56 -15 15 -21 18 -13 7z"/>
<path d="M2889 1992 c5 -34 6 -35 9 -8 2 16 0 32 -5 37 -5 5 -7 -7 -4 -29z"/>
<path d="M3041 1974 c0 -11 3 -14 6 -6 3 7 2 16 -1 19 -3 4 -6 -2 -5 -13z"/>
<path d="M3082 1940 c0 -14 2 -19 5 -12 2 6 2 18 0 25 -3 6 -5 1 -5 -13z"/>
<path d="M3500 1941 c-30 -7 -100 -59 -100 -73 0 -6 18 6 40 26 35 31 47 36
89 36 35 0 55 -6 72 -21 21 -18 21 -20 4 -13 -11 4 -43 9 -71 12 -39 3 -53 0
-65 -14 -13 -16 -12 -16 8 -6 38 21 87 14 130 -17 45 -33 72 -72 115 -169 16
-37 26 -53 23 -37 -10 50 -53 136 -91 182 -41 49 -30 58 15 12 17 -17 31 -26
31 -21 0 6 -15 22 -32 36 -18 14 -40 32 -49 39 -16 14 -76 38 -88 36 -3 -1
-17 -4 -31 -8z"/>
<path d="M3058 1848 c14 -94 18 -106 27 -96 8 7 -26 188 -34 188 -4 0 -1 -42
7 -92z"/>
<path d="M3380 1778 c0 -24 4 -49 8 -55 5 -7 8 12 8 42 -1 30 -4 55 -8 55 -5
0 -8 -19 -8 -42z"/>
<path d="M3731 1770 c14 -31 19 -36 19 -24 0 6 -7 19 -16 30 -14 18 -14 18 -3
-6z"/>
<path d="M3080 1735 c0 -5 5 -17 10 -25 5 -8 10 -10 10 -5 0 6 -5 17 -10 25
-5 8 -10 11 -10 5z"/>
<path d="M3428 1671 c26 -25 41 -31 75 -31 40 0 67 13 67 33 0 5 -7 1 -16 -7
-25 -25 -87 -20 -126 10 l-33 26 33 -31z"/>
<path d="M3100 1685 c0 -5 5 -17 10 -25 5 -8 10 -10 10 -5 0 6 -5 17 -10 25
-5 8 -10 11 -10 5z"/>
<path d="M3126 1627 c3 -10 9 -15 12 -12 3 3 0 11 -7 18 -10 9 -11 8 -5 -6z"/>
<path d="M3744 1595 c3 -16 8 -57 11 -91 6 -58 19 -94 29 -84 2 3 -2 30 -10
60 -8 30 -14 68 -14 85 0 16 -5 37 -11 45 -8 11 -9 8 -5 -15z"/>
<path d="M3161 1573 c7 -12 15 -20 18 -17 3 2 -3 12 -13 22 -17 16 -18 16 -5
-5z"/>
<path d="M3781 1534 c0 -11 3 -14 6 -6 3 7 2 16 -1 19 -3 4 -6 -2 -5 -13z"/>
<path d="M3204 1531 c4 -6 16 -16 28 -22 15 -8 18 -8 14 0 -4 6 -16 16 -28 22
-15 8 -18 8 -14 0z"/>
<path d="M3826 1400 c9 -31 49 -96 66 -106 7 -4 6 1 -3 12 -9 10 -19 26 -23
34 -4 8 -16 31 -27 50 -14 26 -18 28 -13 10z"/>
<path d="M4432 1223 c-40 -14 -71 -27 -68 -30 5 -5 166 46 166 53 0 8 -26 2
-98 -23z"/>
<path d="M4967 1615 c-14 -25 -24 -45 -22 -45 7 0 57 81 53 85 -2 2 -16 -16
-31 -40z"/>
<path d="M4362 1630 c0 -14 2 -19 5 -12 2 6 2 18 0 25 -3 6 -5 1 -5 -13z"/>
<path d="M4372 1527 c-6 -40 -14 -81 -18 -92 -5 -13 -4 -16 4 -11 7 4 12 15
12 26 0 22 23 32 56 24 17 -4 24 -2 24 9 0 18 -27 30 -35 17 -4 -6 -12 -10
-19 -10 -9 0 -11 15 -8 55 6 78 -2 68 -16 -18z"/>
<path d="M4352 1540 c0 -14 2 -19 5 -12 2 6 2 18 0 25 -3 6 -5 1 -5 -13z"/>
<path d="M4510 1480 c0 -6 7 -10 15 -10 8 0 15 2 15 4 0 2 -7 6 -15 10 -8 3
-15 1 -15 -4z"/>
<path d="M4324 1453 c-9 -31 -68 -143 -75 -143 -4 0 -10 -8 -13 -17 -14 -35
40 27 63 72 24 47 43 105 35 105 -3 0 -7 -8 -10 -17z"/>
<path d="M4331 1378 l-11 -33 20 25 c21 27 25 40 11 40 -5 0 -14 -15 -20 -32z"/>
<path d="M4135 1250 c-3 -6 1 -7 9 -4 18 7 21 14 7 14 -6 0 -13 -4 -16 -10z"/>
</g>
</svg>
